<svg xmlns="http://www.w3.org/2000/svg" xmlns:xlink="http://www.w3.org/1999/xlink" xmlns:lucid="lucid" width="1109" height="869"><g transform="translate(-506 -224)" lucid:page-tab-id="0_0"><path d="M698.7 364.5v9.78m.03 9.8l.03 19.55m.02 9.78l.04 19.58m.02 9.78l.04 19.57m.02 9.78l.04 19.57m0 9.8L699 521m0 9.78l.05 19.57m.02 9.78l.04 19.57m.03 9.78l.03 19.57m.02 9.78l.04 19.56m.02 9.8l.04 19.56m.02 9.78l.03 19.57m.02 9.8l.04 19.56m0 9.78l.05 19.56m.02 9.8l.04 19.55m.02 9.78l.04 19.57m.02 9.78l.04 19.57m.02 9.78l.04 19.57m.02 9.78l.03 19.56m.02 9.8l.04 19.55m0 9.77l.05 19.57m.02 9.78l.03 19.57m.02 9.77l.04 19.56m.02 9.8l.02 9.77" stroke="#333" fill="none"/><path d="M699.2 364.5h-1v-.5h1" fill="#333"/><path d="M700 1039.5v.5" stroke="#333" fill="none"/><path d="M679.76 428c0-4.42 3.58-8 8-8h24c4.42 0 8 3.58 8 8v544c0 4.42-3.58 8-8 8h-24c-4.42 0-8-3.58-8-8z" stroke="#f2f2f2" fill="#ced4db"/><path d="M1059.52 364.5v10.22m0 10.22v20.44m0 10.22v20.44m0 10.22v20.44m0 10.22v20.44m0 10.22v20.44m0 10.22v20.44m0 10.22v20.44m0 10.22V620m0 10.22v20.44m0 10.22v20.44m0 10.22v10.22l.07.17.16.07.17.07.07.17v10.22m0 10.22v20.44m0 10.22v20.44m0 10.22v20.44m0 10.22v20.44m0 10.22v20.44m0 10.22v20.44m0 10.22v20.44m0 10.22v20.44m0 10.22v20.44m0 10.22v20.44m0 10.22v10.22" stroke="#333" fill="none"/><path d="M1060.02 364.5h-1v-.5h1" fill="#333"/><path d="M1060 1039.5v.5" stroke="#333" fill="none"/><path d="M1039.52 428c0-4.42 3.58-8 8-8h24c4.42 0 8 3.58 8 8v544c0 4.42-3.58 8-8 8h-24c-4.42 0-8-3.58-8-8z" stroke="#f2f2f2" fill="#ced4db"/><path d="M1420.36 364.5v10.22m0 10.22v20.45m0 10.2v20.45m0 10.23v20.44m0 10.22v20.44m0 10.23v20.45m0 10.22v20.45m0 10.22v20.44m0 10.22v20.45m0 10.22v20.44m0 10.23v20.45m0 10.22v10.22l-.06.13-.12.05-.13.05-.05.13v10.22m0 10.22v20.45m0 10.22v20.43m0 10.22v20.45m0 10.22v20.44m0 10.22v20.45m0 10.22v20.44m0 10.22v20.44m0 10.22v20.44m0 10.23v20.44m0 10.2v20.46m0 10.22v10.22" stroke="#333" fill="none"/><path d="M1420.86 364.5h-1v-.5h1" fill="#333"/><path d="M1420 1039.5v.5" stroke="#333" fill="none"/><path d="M1399.28 628c0-4.42 3.58-8 8-8h24c4.42 0 8 3.58 8 8v304c0 4.42-3.58 8-8 8h-24c-4.42 0-8-3.58-8-8z" stroke="#f2f2f2" fill="#ced4db"/><path d="M603.65 288c0-4.42 3.58-8 8-8h174.07c4.42 0 8 3.58 8 8v68c0 4.42-3.58 8-8 8H611.65c-4.42 0-8-3.58-8-8z" fill="#ffaf28"/><use xlink:href="#a" transform="translate(656.384 314.889)"/><use xlink:href="#b" transform="translate(668.582 336.222)"/><path d="M964.48 288c0-4.42 3.6-8 8-8h174.08c4.42 0 8 3.58 8 8v68c0 4.42-3.58 8-8 8H972.48c-4.4 0-8-3.58-8-8z" fill="#ffcc78"/><use xlink:href="#c" transform="translate(1041.737 314.889)"/><use xlink:href="#d" transform="translate(1033.86 336.222)"/><path d="M1325.32 288c0-4.42 3.58-8 8-8h174.07c4.4 0 8 3.58 8 8v68c0 4.42-3.6 8-8 8H1333.3c-4.42 0-8-3.58-8-8z" fill="#ffe6be"/><use xlink:href="#e" transform="translate(1396.2 314.889)"/><use xlink:href="#f" transform="translate(1351.805 336.222)"/><use xlink:href="#g" transform="translate(1429.633 336.222)"/><use xlink:href="#h" transform="translate(1469.139 336.222)"/><path d="M1038.52 515.67H736.64" stroke="#333" fill="none"/><path d="M1039.02 516.17h-.5v-1h.5" fill="#333"/><path d="M721.88 515.67l14.26-4.64v9.27z" stroke="#333" fill="#333"/><use xlink:href="#i" transform="translate(817.029 504.554)"/><use xlink:href="#j" transform="translate(846.658 504.554)"/><use xlink:href="#k" transform="translate(873.226 504.554)"/><use xlink:href="#l" transform="translate(892.98 504.554)"/><path d="M1022.64 553h-5.03m-5.03 0h-10.06m-5.02 0h-10.06m-5.03 0H972.3m-5.03 0H957.2m-5.03 0h-10.06m-5.03 0h-10.06m-5.03 0h-10.05m-5.03 0h-10.06m-5.04 0h-10.06m-5.03 0h-10.06m-5.03 0h-10.07m-5.03 0h-10.06m-5.03 0H821.4m-5.04 0H806.3m-5.04 0H791.2m-5.03 0H776.1m-5.03 0H761m-5.02 0h-10.06m-5.03 0H730.8m-5.03 0h-5.04" stroke="#333" fill="none"/><path d="M1037.4 553l-14.26 4.64v-9.27z" stroke="#333" fill="#333"/><path d="M720.77 553.5h-.5v-1h.5" fill="#333"/><path d="M1399.5 650h-303.1m303.1 0h.5" stroke="#333" fill="none"/><path d="M1081.64 650l14.27-4.64v9.28z" stroke="#333" fill="#333"/><use xlink:href="#m" transform="translate(1106.361 638.889)"/><use xlink:href="#n" transform="translate(1135.991 638.889)"/><use xlink:href="#o" transform="translate(1185.966 638.889)"/><use xlink:href="#p" transform="translate(1238.213 638.889)"/><use xlink:href="#q" transform="translate(1290.855 638.889)"/><use xlink:href="#r" transform="translate(1316.485 638.889)"/><use xlink:href="#s" transform="translate(1361.818 638.889)"/><path d="M1038.52 659.3H736.64" stroke="#333" fill="none"/><path d="M1039.02 659.8h-.5v-1h.5" fill="#333"/><path d="M721.88 659.3l14.26-4.63v9.27z" stroke="#333" fill="#333"/><use xlink:href="#m" transform="translate(745.992 648.19)"/><use xlink:href="#n" transform="translate(775.621 648.19)"/><use xlink:href="#o" transform="translate(825.597 648.19)"/><use xlink:href="#p" transform="translate(877.844 648.19)"/><use xlink:href="#q" transform="translate(930.486 648.19)"/><use xlink:href="#r" transform="translate(956.115 648.19)"/><use xlink:href="#s" transform="translate(1001.449 648.19)"/><path d="M1022.64 673.2h-5.03m-5.03 0h-10.06m-5.02 0h-10.06m-5.03 0H972.3m-5.03 0H957.2m-5.03 0h-10.06m-5.03 0h-10.06m-5.03 0h-10.05m-5.03 0h-10.06m-5.04 0h-10.06m-5.03 0h-10.06m-5.03 0h-10.07m-5.03 0h-10.06m-5.03 0H821.4m-5.04 0H806.3m-5.04 0H791.2m-5.03 0H776.1m-5.03 0H761m-5.02 0h-10.06m-5.03 0H730.8m-5.03 0h-5.04" stroke="#333" fill="none"/><path d="M1037.4 673.2l-14.26 4.64v-9.28z" stroke="#333" fill="#333"/><path d="M720.77 673.7h-.5v-1h.5" fill="#333"/><path d="M1383.62 682.8h-5.06m-5.05 0h-10.1m-5.04 0h-10.1m-5.06 0h-10.1m-5.05 0h-10.1m-5.06 0h-10.1m-5.06 0h-10.1m-5.06 0h-10.1m-5.05 0h-10.1m-5.05 0h-10.1m-5.06 0h-10.1m-5.05 0h-10.1m-5.06 0h-10.1m-5.04 0h-10.1m-5.06 0h-10.1m-5.05 0h-10.1m-5.06 0h-10.1m-5.06 0h-10.1m-5.06 0h-10.1m-5.05 0h-10.1m-5.06 0h-5.05" stroke="#333" fill="none"/><path d="M1398.38 682.8l-14.26 4.64v-9.28z" stroke="#333" fill="#333"/><path d="M1080.53 683.3h-.5v-1h.5" fill="#333"/><path d="M1398.28 759.6H736.65" stroke="#333" fill="none"/><path d="M1398.78 760.1h-.5v-1h.5" fill="#333"/><path d="M721.88 759.6l14.27-4.64v9.28z" stroke="#333" fill="#333"/><use xlink:href="#t" transform="translate(1192.218 748.489)"/><use xlink:href="#u" transform="translate(1224.712 748.489)"/><use xlink:href="#v" transform="translate(1270.045 748.489)"/><path d="M1398.28 840.4H736.65" stroke="#333" fill="none"/><path d="M1398.78 840.9h-.5v-1h.5" fill="#333"/><path d="M721.88 840.4l14.27-4.64v9.28z" stroke="#333" fill="#333"/><use xlink:href="#w" transform="translate(1159.107 829.289)"/><use xlink:href="#u" transform="translate(1222.317 829.289)"/><use xlink:href="#x" transform="translate(1267.65 829.289)"/><path d="M1398.28 879.6H736.64" stroke="#333" fill="none"/><path d="M1398.78 880.1h-.5v-1h.5" fill="#333"/><path d="M721.88 879.6l14.26-4.64v9.28z" stroke="#333" fill="#333"/><use xlink:href="#y" transform="translate(1193.156 868.489)"/><use xlink:href="#z" transform="translate(1237.551 868.489)"/><path d="M1398.28 919.6H736.65" stroke="#333" fill="none"/><path d="M1398.78 920.1h-.5v-1h.5" fill="#333"/><path d="M721.88 919.6l14.27-4.64v9.28z" stroke="#333" fill="#333"/><use xlink:href="#A" transform="translate(1193.181 908.489)"/><use xlink:href="#B" transform="translate(1240.539 908.489)"/><path d="M1382.4 799.6h-5m-5 0h-10.03m-5 0h-10m-5.02 0h-10m-5.02 0h-10m-5 0h-10.03m-5 0h-10m-5.02 0h-10m-5.02 0h-10m-5 0h-10.03m-5 0h-10m-5.02 0h-10m-5 0h-10.02m-5 0h-10.02m-5 0h-10m-5.02 0h-10m-5.02 0h-10m-5 0h-10.03m-5 0h-10.02m-5 0h-10.02m-5 0h-10.02m-5 0h-10.02m-5 0h-10m-5.02 0h-10m-5.02 0h-10m-5 0h-10.03m-5 0h-10m-5.02 0h-10m-5.02 0h-10m-5 0h-10.02m-5 0h-10m-5.02 0h-10m-5.02 0h-10m-5 0H881.8m-5 0h-10m-5 0h-10.02m-5 0h-10.02m-5 0h-10.02m-5 0h-10m-5.02 0h-10m-5.02 0h-10m-5 0h-10.03m-5 0h-10m-5.02 0h-5" stroke="#333" fill="none"/><path d="M1397.16 799.6l-14.26 4.64v-9.28zm-675.28 0l14.26-4.64v9.28z" stroke="#333" fill="#333"/><use xlink:href="#C" transform="translate(757.03 788.4)"/><use xlink:href="#D" transform="translate(835.13 788.4)"/><use xlink:href="#E" transform="translate(883.08 788.4)"/><use xlink:href="#F" transform="translate(942.98 788.4)"/><use xlink:href="#G" transform="translate(977.98 788.4)"/><defs><path fill="#333" d="M194-120c59 52 2 134-86 124-53-6-90-18-98-63l31-7c8 30 29 43 70 43 46 0 84-17 71-62-32-43-135-20-137-98-3-89 178-90 191-16l-30 9c-8-48-127-53-127 5 0 53 81 35 115 65" id="H"/><path fill="#333" d="M50-231l6-30h32l-6 30H50zM6 0l37-190h31L37 0H6" id="I"/><path fill="#333" d="M103-194c29 0 47 14 56 36 2-11 5-23 8-32h30L160-5C157 61 82 97 21 62 9 55 4 45 1 30l28-7c7 42 83 31 92-3 4-16 9-38 13-55-13 20-29 36-62 36-40 0-60-25-60-64 0-71 23-131 91-131zm4 24c-53 0-58 54-61 104-2 27 10 44 36 44 49 0 65-50 67-102 1-29-15-46-42-46" id="J"/><path fill="#333" d="M67-158c22-48 132-52 116 29L158 0h-32l25-140c3-38-53-32-70-12C52-117 51-52 38 0H6l36-190h30" id="K"/><path fill="#333" d="M165-48c-4 18 1 34 23 27l-3 20c-29 8-62 0-52-35h-2C116-14 99 4 63 4 30 4 8-16 8-49c0-68 71-67 138-67 10-26 0-56-31-54-26 1-42 9-47 31l-32-5c8-67 160-71 144 15-5 28-9 54-15 81zM42-50c3 52 80 24 89-6 7-12 7-24 11-38-47 1-103-4-100 44" id="L"/><path fill="#333" d="M6 0l50-261h32L37 0H6" id="M"/><path fill="#333" d="M247 0h-39l-15-214-24 57L95 0H56L31-248h35L82-30l101-218h33l16 218 101-218h35" id="N"/><path fill="#333" d="M66-151c12-25 30-51 66-40l-6 26C45-176 58-65 38 0H6l36-190h30" id="O"/><path fill="#333" d="M111-194c62-3 86 47 72 106H45c-7 38 6 69 45 68 27-1 43-14 53-32l24 11C152-15 129 4 87 4 38 3 12-23 12-71c0-70 32-119 99-123zm44 81c14-66-71-72-95-28-4 8-8 17-11 28h106" id="P"/><path fill="#333" d="M89 0H52L20-190h33L74-25l89-165h34" id="Q"/><path fill="#333" d="M55-144c13 50 104 24 104 88C159 21 15 23 1-39l26-10c6 40 102 42 102-4-13-50-104-23-104-87 0-71 143-71 148-8l-29 4c-5-35-85-37-89 0" id="R"/><path fill="#333" d="M138-103L118 0H85l20-103-68-145h35l54 119 98-119h38" id="S"/><path fill="#333" d="M30-147c31-64 166-65 159 27C183-49 158 1 86 4 9 8 1-88 30-147zM88-20c53 0 68-48 68-100 0-31-11-51-44-50-52 1-68 46-68 97 0 32 13 53 44 53" id="T"/><path fill="#333" d="M67 3c-93-2-31-127-26-193h32L48-50c-3 39 53 32 70 12 30-34 30-101 43-152h32L157 0h-30c1-10 6-24 4-33-14 20-29 37-64 36" id="U"/><path fill="#333" d="M161-211c-63 0-91 46-91 110 0 39 17 65 58 64 38-1 60-20 74-45l40 20C220-23 184 0 125 4 9 13-10-144 57-208c33-50 166-62 196-1 4 8 9 18 11 27l-48 12c-6-24-25-41-55-41" id="V"/><path fill="#333" d="M6 0l51-261h49L55 0H6" id="W"/><path fill="#333" d="M50-224l7-37h49l-7 37H50zM6 0l37-190h49L55 0H6" id="X"/><path fill="#333" d="M114-194c63-2 87 48 72 110H63c-3 28 1 55 31 54 21-1 32-13 37-29l44 13C160-14 137 4 91 4 41 4 11-22 11-73c0-71 33-119 103-121zm30 77c14-47-50-61-67-22-3 6-6 13-8 22h75" id="Y"/><path fill="#333" d="M151-194c95 0 34 128 28 194h-49l25-134c0-29-45-25-59-9C67-111 69-48 56 0H6l36-190h47l-4 32c15-20 33-36 66-36" id="Z"/><path fill="#333" d="M72-63c-8 23 5 39 32 30L98-1C54 14 12-6 23-64l18-93H15l7-33h28l24-45h31l-8 45h35l-6 33H90" id="aa"/><path fill="#333" d="M17-49c1-102 45-165 103-212h30C92-210 49-145 49-46 49 4 63 43 85 75H54C30 43 18 2 17-49" id="ab"/><path fill="#333" d="M68-162c25-46 127-43 121 31C183-60 169 1 98 4 69 5 53-11 43-31L36 0H5l52-261h31zm88 36c2-27-9-43-34-43-55 0-70 51-70 103 0 29 15 45 43 46 52 0 58-58 61-106" id="ac"/><path fill="#333" d="M188 0h-37l-8-164L71 0H34L18-190h31l8 164 75-164h34l8 164 74-164h31" id="ad"/><path fill="#333" d="M58-38C53-5 46 26 28 46H7C19 32 27 18 32 0H17l7-38h34" id="ae"/><path fill="#333" d="M67-162c32-53 139-36 121 50C175-51 163 2 97 4 68 4 52-11 42-31 38 6 28 39 22 75H-9l50-265h29c-1 10 0 20-3 28zm89 36c0-26-10-43-35-43-54 0-67 50-69 103-1 29 14 45 42 46 53 0 62-58 62-106" id="af"/><path fill="#333" d="M14 0l8-38h34L48 0H14" id="ag"/><path fill="#333" d="M98-137C97-35 54 29-4 75h-31C23 23 67-41 67-140c0-50-15-89-37-121h31c24 32 36 73 37 124" id="ah"/><path fill="#333" d="M51-54c-9 22 5 41 31 30L79-1C43 14 10-4 19-52l22-115H19l5-23h22l19-43h21l-9 43h35l-4 23H73" id="ai"/><path fill="#333" d="M76-167L44 0H12l33-167H18l4-23h27c3-47 25-81 82-69l-4 24c-35-8-44 15-46 45h37l-5 23H76" id="aj"/><path fill="#333" d="M248-111c6-24 9-61-24-58-72 9-57 108-77 169h-31l26-142c3-37-50-30-64-10C52-115 50-51 37 0H6l36-190h30c-1 10-6 24-4 32 13-43 101-52 105 5 13-22 29-41 61-41 90 0 28 129 23 194h-31" id="ak"/><path fill="#333" d="M119 0H84L31-248h34l41 218 126-218h36" id="al"/><path fill="#333" d="M133-28C103 26-5 8 13-77c13-62 24-115 90-117 29-1 46 15 56 35l19-102h32L160 0h-30zM45-64c-2 27 10 43 35 43 54-1 69-50 69-103 0-29-15-46-42-46-53-1-58 58-62 106" id="am"/><path fill="#333" d="M249-183c0 48-29 72-75 77L221 0h-36l-43-103H65L45 0H11l48-248c83 2 190-17 190 65zm-34 3c0-55-74-39-127-41l-18 92c63-1 145 13 145-51" id="an"/><path fill="#333" d="M151-220L108 0H75l42-220H32l6-28h203l-5 28h-85" id="ao"/><path fill="#333" d="M127 0L80-88 50-66 37 0H6l51-261h31L57-100l99-90h39l-93 82L161 0h-34" id="ap"/><path fill="#333" d="M187 0l-14-72H61L19 0h-37l149-248h38L221 0h-34zm-19-99l-22-123L76-99h92" id="aK"/><path fill="#333" d="M51-231l6-30h31l-6 30H51zM33 24C28 60 2 84-40 72c3-12-1-29 18-22C-5 49-1 37 2 19l41-209h32" id="aq"/><path fill="#333" d="M44-68c0 29 11 47 38 47 30 0 42-19 51-41l28 9C148-21 126 4 82 4 31 4 10-29 12-85c3-77 74-140 146-93 12 8 15 23 18 40l-31 5c-1-22-13-36-36-36-52 0-65 49-65 101" id="ar"/><path fill="#333" d="M67-158c15-20 31-36 64-36 94 0 33 127 27 194h-32l25-140c3-38-53-32-70-12C52-117 51-51 37 0H6l51-261h31" id="as"/><path fill="#333" d="M198-190L69 30C53 58 25 83-20 72c4-11-1-27 19-22 33-1 43-29 59-52L20-190h32L79-34l84-156h35" id="at"/><path fill="#333" d="M266 0h-40l-56-210L115 0H75L2-248h35L96-30l15-64 43-154h32l59 218 59-218h35" id="au"/><path fill="#333" d="M100-194c63 0 86 42 84 106H49c0 40 14 67 53 68 26 1 43-12 49-29l28 8c-11 28-37 45-77 45C44 4 14-33 15-96c1-61 26-98 85-98zm52 81c6-60-76-77-97-28-3 7-6 17-6 28h103" id="av"/><path fill="#333" d="M115-194c53 0 69 39 70 98 0 66-23 100-70 100C84 3 66-7 56-30L54 0H23l1-261h32v101c10-23 28-34 59-34zm-8 174c40 0 45-34 45-75 0-40-5-75-45-74-42 0-51 32-51 76 0 43 10 73 51 73" id="aw"/><path fill="#333" d="M233-177c-1 41-23 64-60 70L243 0h-38l-65-103H63V0H30v-248c88 3 205-21 203 71zM63-129c60-2 137 13 137-47 0-61-80-42-137-45v92" id="ax"/><path fill="#333" d="M127-220V0H93v-220H8v-28h204v28h-85" id="ay"/><path fill="#333" d="M212-179c-10-28-35-45-73-45-59 0-87 40-87 99 0 60 29 101 89 101 43 0 62-24 78-52l27 14C228-24 195 4 139 4 59 4 22-46 18-125c-6-104 99-153 187-111 19 9 31 26 39 46" id="az"/><path fill="#333" d="M108 0H70L1-190h34L89-25l56-165h34" id="aA"/><path fill="#333" d="M24-231v-30h32v30H24zM24 0v-190h32V0H24" id="aB"/><path fill="#333" d="M85-194c31 0 48 13 60 33l-1-100h32l1 261h-30c-2-10 0-23-3-31C134-8 116 4 85 4 32 4 16-35 15-94c0-66 23-100 70-100zm9 24c-40 0-46 34-46 75 0 40 6 74 45 74 42 0 51-32 51-76 0-42-9-74-50-73" id="aC"/><path fill="#333" d="M100-194c62-1 85 37 85 99 1 63-27 99-86 99S16-35 15-95c0-66 28-99 85-99zM99-20c44 1 53-31 53-75 0-43-8-75-51-75s-53 32-53 75 10 74 51 75" id="aD"/><path fill="#333" d="M135-143c-3-34-86-38-87 0 15 53 115 12 119 90S17 21 10-45l28-5c4 36 97 45 98 0-10-56-113-15-118-90-4-57 82-63 122-42 12 7 21 19 24 35" id="aE"/><path fill="#333" d="M59-47c-2 24 18 29 38 22v24C64 9 27 4 27-40v-127H5v-23h24l9-43h21v43h35v23H59v120" id="aF"/><path fill="#333" d="M114-163C36-179 61-72 57 0H25l-1-190h30c1 12-1 29 2 39 6-27 23-49 58-41v29" id="aG"/><path fill="#333" d="M141-36C126-15 110 5 73 4 37 3 15-17 15-53c-1-64 63-63 125-63 3-35-9-54-41-54-24 1-41 7-42 31l-33-3c5-37 33-52 76-52 45 0 72 20 72 64v82c-1 20 7 32 28 27v20c-31 9-61-2-59-35zM48-53c0 20 12 33 32 33 41-3 63-29 60-74-43 2-92-5-92 41" id="aH"/><path fill="#333" d="M210-169c-67 3-38 105-44 169h-31v-121c0-29-5-50-35-48C34-165 62-65 56 0H25l-1-190h30c1 10-1 24 2 32 10-44 99-50 107 0 11-21 27-35 58-36 85-2 47 119 55 194h-31v-121c0-29-5-49-35-48" id="aI"/><path fill="#333" d="M117-194c89-4 53 116 60 194h-32v-121c0-31-8-49-39-48C34-167 62-67 57 0H25l-1-190h30c1 10-1 24 2 32 11-22 29-35 61-36" id="aJ"/><g id="a"><use transform="scale(.04938)" xlink:href="#H"/><use transform="translate(11.852) scale(.04938)" xlink:href="#I"/><use transform="translate(15.753) scale(.04938)" xlink:href="#J"/><use transform="translate(25.63) scale(.04938)" xlink:href="#K"/><use transform="translate(35.506) scale(.04938)" xlink:href="#L"/><use transform="translate(45.383) scale(.04938)" xlink:href="#M"/><use transform="translate(49.284) scale(.04938)" xlink:href="#N"/><use transform="translate(65.877) scale(.04938)" xlink:href="#I"/><use transform="translate(69.778) scale(.04938)" xlink:href="#O"/><use transform="translate(75.654) scale(.04938)" xlink:href="#P"/><path fill="#333" d="M-.9 1.23h87.32v1.3H-.88z"/></g><g id="b"><use transform="scale(.04938)" xlink:href="#H"/><use transform="translate(11.852) scale(.04938)" xlink:href="#P"/><use transform="translate(21.728) scale(.04938)" xlink:href="#O"/><use transform="translate(27.605) scale(.04938)" xlink:href="#Q"/><use transform="translate(36.494) scale(.04938)" xlink:href="#P"/><use transform="translate(46.37) scale(.04938)" xlink:href="#O"/><use transform="translate(52.247) scale(.04938)" xlink:href="#R"/><path fill="#333" d="M-.9 1.23h62.92v1.3H-.88z"/></g><g id="c"><use transform="scale(.04938)" xlink:href="#S"/><use transform="translate(10.864) scale(.04938)" xlink:href="#T"/><use transform="translate(20.74) scale(.04938)" xlink:href="#U"/><use transform="translate(30.617) scale(.04938)" xlink:href="#O"/><path fill="#333" d="M-.9 1.23h38.3v1.3H-.9z"/></g><g id="d"><use transform="scale(.04938)" xlink:href="#H"/><use transform="translate(11.852) scale(.04938)" xlink:href="#P"/><use transform="translate(21.728) scale(.04938)" xlink:href="#O"/><use transform="translate(27.605) scale(.04938)" xlink:href="#Q"/><use transform="translate(36.494) scale(.04938)" xlink:href="#P"/><use transform="translate(46.37) scale(.04938)" xlink:href="#O"/><path fill="#333" d="M-.9 1.23h54.03v1.3H-.9z"/></g><g id="e"><use transform="scale(.04938)" xlink:href="#V"/><use transform="translate(12.79) scale(.04938)" xlink:href="#W"/><use transform="translate(17.728) scale(.04938)" xlink:href="#X"/><use transform="translate(22.667) scale(.04938)" xlink:href="#Y"/><use transform="translate(32.543) scale(.04938)" xlink:href="#Z"/><use transform="translate(43.358) scale(.04938)" xlink:href="#aa"/><path fill="#333" d="M-.9.95h51.02v1.87h-51z"/><path fill="#333" d="M48.35 1.23h1.78v1.3h-1.78z"/></g><g id="f"><use transform="scale(.04938)" xlink:href="#ab"/><use transform="translate(5.877) scale(.04938)" xlink:href="#ac"/><use transform="translate(15.753) scale(.04938)" xlink:href="#O"/><use transform="translate(21.63) scale(.04938)" xlink:href="#T"/><use transform="translate(31.506) scale(.04938)" xlink:href="#ad"/><use transform="translate(44.296) scale(.04938)" xlink:href="#R"/><use transform="translate(53.185) scale(.04938)" xlink:href="#P"/><use transform="translate(63.062) scale(.04938)" xlink:href="#O"/><use transform="translate(67.95) scale(.04938)" xlink:href="#ae"/><path fill="#333" d="M-.9 1.23h79.6v1.3H-.9z"/></g><g id="g"><use transform="scale(.04938)" xlink:href="#L"/><use transform="translate(9.877) scale(.04938)" xlink:href="#af"/><use transform="translate(19.753) scale(.04938)" xlink:href="#af"/><use transform="translate(29.63) scale(.04938)" xlink:href="#ae"/><path fill="#333" d="M-.9 1.23h41.3v1.3H-.9z"/></g><g id="h"><use transform="scale(.04938)" xlink:href="#ag"/><use transform="translate(4.938) scale(.04938)" xlink:href="#ag"/><use transform="translate(9.877) scale(.04938)" xlink:href="#ag"/><use transform="translate(14.815) scale(.04938)" xlink:href="#ah"/><path fill="#333" d="M-.9 1.23h22.5v1.3H-.9z"/></g><g id="i"><use transform="scale(.04938)" xlink:href="#J"/><use transform="translate(9.877) scale(.04938)" xlink:href="#P"/><use transform="translate(19.753) scale(.04938)" xlink:href="#ai"/></g><g id="j"><use transform="scale(.04938)" xlink:href="#M"/><use transform="translate(3.901) scale(.04938)" xlink:href="#I"/><use transform="translate(7.802) scale(.04938)" xlink:href="#R"/><use transform="translate(16.691) scale(.04938)" xlink:href="#ai"/></g><g id="k"><use transform="scale(.04938)" xlink:href="#T"/><use transform="translate(9.877) scale(.04938)" xlink:href="#aj"/></g><g id="l"><use transform="scale(.04938)" xlink:href="#O"/><use transform="translate(5.877) scale(.04938)" xlink:href="#T"/><use transform="translate(15.753) scale(.04938)" xlink:href="#T"/><use transform="translate(25.63) scale(.04938)" xlink:href="#ak"/><use transform="translate(40.395) scale(.04938)" xlink:href="#R"/></g><g id="m"><use transform="scale(.04938)" xlink:href="#J"/><use transform="translate(9.877) scale(.04938)" xlink:href="#P"/><use transform="translate(19.753) scale(.04938)" xlink:href="#ai"/></g><g id="n"><use transform="scale(.04938)" xlink:href="#al"/><use transform="translate(11.506) scale(.04938)" xlink:href="#I"/><use transform="translate(15.407) scale(.04938)" xlink:href="#am"/><use transform="translate(25.284) scale(.04938)" xlink:href="#P"/><use transform="translate(35.16) scale(.04938)" xlink:href="#T"/></g><g id="o"><use transform="scale(.04938)" xlink:href="#an"/><use transform="translate(12.79) scale(.04938)" xlink:href="#T"/><use transform="translate(22.667) scale(.04938)" xlink:href="#T"/><use transform="translate(32.543) scale(.04938)" xlink:href="#ak"/></g><g id="p"><use transform="scale(.04938)" xlink:href="#ao"/><use transform="translate(9.185) scale(.04938)" xlink:href="#T"/><use transform="translate(19.062) scale(.04938)" xlink:href="#ap"/><use transform="translate(27.95) scale(.04938)" xlink:href="#P"/><use transform="translate(37.827) scale(.04938)" xlink:href="#K"/></g><g id="q"><use transform="scale(.04938)" xlink:href="#aj"/><use transform="translate(4.938) scale(.04938)" xlink:href="#T"/><use transform="translate(14.815) scale(.04938)" xlink:href="#O"/></g><g id="r"><use transform="scale(.04938)" xlink:href="#O"/><use transform="translate(5.877) scale(.04938)" xlink:href="#T"/><use transform="translate(15.753) scale(.04938)" xlink:href="#T"/><use transform="translate(25.63) scale(.04938)" xlink:href="#ak"/></g><g id="t"><use transform="scale(.04938)" xlink:href="#aq"/><use transform="translate(3.901) scale(.04938)" xlink:href="#T"/><use transform="translate(13.778) scale(.04938)" xlink:href="#I"/><use transform="translate(17.679) scale(.04938)" xlink:href="#K"/></g><g id="u"><use transform="scale(.04938)" xlink:href="#O"/><use transform="translate(5.877) scale(.04938)" xlink:href="#T"/><use transform="translate(15.753) scale(.04938)" xlink:href="#T"/><use transform="translate(25.63) scale(.04938)" xlink:href="#ak"/></g><g id="w"><use transform="scale(.04938)" xlink:href="#ar"/><use transform="translate(8.889) scale(.04938)" xlink:href="#as"/><use transform="translate(18.765) scale(.04938)" xlink:href="#L"/><use transform="translate(28.642) scale(.04938)" xlink:href="#K"/><use transform="translate(38.519) scale(.04938)" xlink:href="#J"/><use transform="translate(48.395) scale(.04938)" xlink:href="#P"/></g><g id="x"><use transform="scale(.04938)" xlink:href="#M"/><use transform="translate(3.901) scale(.04938)" xlink:href="#L"/><use transform="translate(13.778) scale(.04938)" xlink:href="#at"/><use transform="translate(22.667) scale(.04938)" xlink:href="#T"/><use transform="translate(32.543) scale(.04938)" xlink:href="#U"/><use transform="translate(42.42) scale(.04938)" xlink:href="#ai"/></g><g id="y"><use transform="scale(.04938)" xlink:href="#ak"/><use transform="translate(14.765) scale(.04938)" xlink:href="#U"/><use transform="translate(24.642) scale(.04938)" xlink:href="#ai"/><use transform="translate(29.58) scale(.04938)" xlink:href="#P"/></g><g id="z"><use transform="scale(.04938)" xlink:href="#L"/><use transform="translate(9.877) scale(.04938)" xlink:href="#U"/><use transform="translate(19.753) scale(.04938)" xlink:href="#am"/><use transform="translate(29.63) scale(.04938)" xlink:href="#I"/><use transform="translate(33.53) scale(.04938)" xlink:href="#T"/></g><g id="A"><use transform="scale(.04938)" xlink:href="#M"/><use transform="translate(3.901) scale(.04938)" xlink:href="#P"/><use transform="translate(13.778) scale(.04938)" xlink:href="#L"/><use transform="translate(23.654) scale(.04938)" xlink:href="#Q"/><use transform="translate(32.543) scale(.04938)" xlink:href="#P"/></g><g id="B"><use transform="scale(.04938)" xlink:href="#O"/><use transform="translate(5.877) scale(.04938)" xlink:href="#T"/><use transform="translate(15.753) scale(.04938)" xlink:href="#T"/><use transform="translate(25.63) scale(.04938)" xlink:href="#ak"/></g><g id="C"><use transform="scale(.05)" xlink:href="#au"/><use transform="translate(16.6) scale(.05)" xlink:href="#av"/><use transform="translate(26.6) scale(.05)" xlink:href="#aw"/><use transform="translate(36.6) scale(.05)" xlink:href="#ax"/><use transform="translate(49.2) scale(.05)" xlink:href="#ay"/><use transform="translate(60.15) scale(.05)" xlink:href="#az"/></g><g id="D"><use transform="scale(.05)" xlink:href="#aA"/><use transform="translate(9) scale(.05)" xlink:href="#aB"/><use transform="translate(12.95) scale(.05)" xlink:href="#aC"/><use transform="translate(22.95) scale(.05)" xlink:href="#av"/><use transform="translate(32.95) scale(.05)" xlink:href="#aD"/></g><g id="E"><use transform="scale(.05)" xlink:href="#aE"/><use transform="translate(9) scale(.05)" xlink:href="#aF"/><use transform="translate(14) scale(.05)" xlink:href="#aG"/><use transform="translate(19.95) scale(.05)" xlink:href="#av"/><use transform="translate(29.95) scale(.05)" xlink:href="#aH"/><use transform="translate(39.95) scale(.05)" xlink:href="#aI"/></g><g id="F"><use transform="scale(.05)" xlink:href="#aH"/><use transform="translate(10) scale(.05)" xlink:href="#aJ"/><use transform="translate(20) scale(.05)" xlink:href="#aC"/></g><g id="G"><use transform="scale(.05)" xlink:href="#av"/><use transform="translate(10) scale(.05)" xlink:href="#aA"/><use transform="translate(19) scale(.05)" xlink:href="#av"/><use transform="translate(29) scale(.05)" xlink:href="#aJ"/><use transform="translate(39) scale(.05)" xlink:href="#aF"/><use transform="translate(44) scale(.05)" xlink:href="#aE"/></g><use transform="scale(.04938)" xlink:href="#aK" id="s"/><use transform="scale(.04938)" xlink:href="#aK" id="v"/></defs></g></svg>