<?xml version="1.0" encoding="utf-8"?>
<svg id="a1100050-5390-497e-a7fa-2bb69ec95c7c" data-name="Layer 1" xmlns="http://www.w3.org/2000/svg" viewBox="-31.504 -10.99 385.001 385.046">
  <defs>
    <style>.a463a3b0-e95c-44d7-b809-5997966784eb{fill:#044ef4}.b59fade4-5c2c-49f1-a6bf-917d1f195a19{fill:#f72a72}</style>
  </defs>
  <rect x="-29.886" y="-9.35" width="381.766" height="381.766" rx="100" ry="100" style="paint-order: fill; fill: rgb(241, 248, 255); stroke: rgb(255, 255, 255); stroke-width: 4px;"/>
  <path class="a463a3b0-e95c-44d7-b809-5997966784eb" d="M 297.346 224.219 C 297.346 233.051 294.947 238.833 290.176 243.596 C 261.581 272.123 232.972 300.634 204.349 329.132 C 194.403 339.009 179.891 339.472 170.032 330.443 C 159.649 320.908 159.238 305.266 169.389 294.918 C 182.239 281.777 195.362 268.816 208.418 255.829 C 224.105 240.238 239.828 224.69 255.585 209.185 C 263.217 201.689 273.437 199.702 282.8 203.959 C 292.317 208.251 297.02 215.867 297.346 224.219 Z M 24.65 134.22 C 24.788 129.757 27.16 124.103 31.812 119.452 C 60.304 91.028 88.802 62.607 117.305 34.19 C 123.233 28.27 130.223 25.238 138.576 26.429 C 148.47 27.842 155.383 33.385 158.604 42.893 C 161.825 52.402 159.598 61.003 152.607 68.104 C 138.976 81.931 125.269 95.665 111.488 109.309 C 96.514 124.197 81.5 139.046 66.446 153.854 C 58.796 161.359 48.594 163.209 39.205 159.106 C 30.073 155.131 24.488 146.384 24.65 134.22 Z" style="stroke-width: 28px; paint-order: stroke;"/>
  <path class="b59fade4-5c2c-49f1-a6bf-917d1f195a19" d="M 44.216 166.558 C 47.463 166.413 50.136 166.49 52.783 166.139 C 59.496 165.297 65.716 162.169 70.395 157.281 C 75.861 151.696 81.352 146.145 86.954 140.439 C 88.008 141.373 88.667 141.896 89.233 142.478 C 110.317 163.552 131.394 184.634 152.462 205.724 C 159.375 212.663 161.799 221.032 159.024 230.447 C 156.351 239.51 150.123 245.31 140.888 247.383 C 132.896 249.182 125.272 247.648 119.412 241.84 C 94.39 217.058 69.607 192.026 44.216 166.558 Z M 277.986 196.807 C 265.136 195.496 255.97 200.456 248.243 208.988 C 244.054 213.614 239.48 217.889 234.957 222.429 C 234.014 221.572 233.363 221.067 232.764 220.476 C 211.667 199.385 190.576 178.286 169.492 157.178 C 162.579 150.239 160.163 141.853 163.016 132.43 C 165.748 123.384 171.985 117.601 181.245 115.571 C 189.434 113.772 197.05 115.571 203.038 121.499 C 227.595 145.81 252.041 170.216 276.375 194.716 C 276.744 195.093 277.018 195.556 277.986 196.807 Z" style="stroke-width: 28px; paint-order: stroke;"/>
</svg>