<svg width="118" height="27" viewBox="0 0 118 27" fill="none" xmlns="http://www.w3.org/2000/svg">
<path d="M92.7884 18.442H90.4423C89.4151 14.7418 88.3878 11.0487 87.3674 7.35547H87.2911C86.2777 11.0417 85.2643 14.7349 84.2509 18.435H81.8978C80.5512 13.8761 79.1977 9.30329 77.8442 4.70951H80.0723C81.0788 8.15834 82.0922 11.6072 83.0986 15.063H83.1611C84.1329 11.6141 85.1046 8.16532 86.0833 4.70253H88.5752C89.5608 8.14437 90.5395 11.5932 91.5252 15.0351H91.6015C92.608 11.5932 93.6144 8.15136 94.6209 4.70253H96.8351C95.4816 9.29631 94.135 13.8622 92.7884 18.442ZM49.9825 10.2528V9.30329H52.0302V18.3163C52.0302 21.1298 49.7743 23.2871 46.9701 23.1614C45.2001 23.0777 43.562 22.1771 42.7152 20.7808C43.1664 20.3828 43.6175 19.9779 44.1034 19.5451C44.7073 20.4876 45.5125 21.1229 46.623 21.2904C47.2755 21.3882 47.9141 21.2904 48.5041 20.9623C49.7396 20.2641 50.1491 19.1052 49.9339 17.5623C47.4282 19.5451 44.5338 18.449 43.3329 16.8991C41.8822 15.0281 41.9586 12.3472 43.5412 10.5809C44.978 8.97517 47.8169 8.40269 49.9825 10.2528ZM49.9756 13.8692C49.9756 12.2844 48.7401 11.0417 47.1644 11.0347C45.568 11.0277 44.3186 12.2704 44.3186 13.8692C44.3186 15.4609 45.5749 16.7176 47.1644 16.7176C48.7262 16.7036 49.9756 15.44 49.9756 13.8692ZM36.4612 6.33618L35.0036 7.67662C34.9064 7.5719 34.8231 7.48114 34.7398 7.39736C33.9208 6.57355 32.9351 6.28033 31.8176 6.60148C30.6099 6.95055 30.2489 8.43061 31.1652 9.29631C31.5122 9.62444 31.9564 9.86181 32.3868 10.0713C33.1573 10.4343 33.9694 10.7205 34.7398 11.0836C35.7602 11.5723 36.6001 12.2564 36.9679 13.3944C37.7731 15.8868 36.253 18.2465 33.5876 18.5816C31.5261 18.8399 29.7769 18.2256 28.4789 16.5221C28.3054 16.2917 28.1735 16.0334 28 15.7541C28.6108 15.3841 29.1939 15.0211 29.7978 14.6511C29.8741 14.7907 29.9366 14.9024 29.9921 15.0141C30.3639 15.6725 30.9553 16.1773 31.6616 16.4392C32.368 16.7012 33.1436 16.7033 33.8514 16.4453C34.5247 16.194 34.955 15.7332 35.0591 15.0071C35.1632 14.295 34.9134 13.7016 34.3372 13.3037C33.893 12.9965 33.4002 12.7591 32.9143 12.5287C32.0883 12.1378 31.2276 11.8236 30.4225 11.3977C29.4715 10.8951 28.8121 10.1131 28.6455 9.00309C28.3054 6.80394 29.4993 5.0516 31.6719 4.61875C33.4488 4.26968 34.9828 4.80027 36.253 6.08485C36.3293 6.14768 36.3849 6.23146 36.4612 6.33618ZM70.6463 10.3505V9.30329H72.687V18.435H70.6601V17.318C69.5357 18.449 68.2446 18.805 66.7939 18.5746C65.6903 18.3931 64.788 17.8276 64.08 16.9549C62.5668 15.0769 62.6779 12.3193 64.2674 10.553C65.5723 9.09385 68.4459 8.27702 70.6463 10.3505ZM67.8906 11.0277C66.3081 11.0207 65.0309 12.2844 65.0309 13.8692C65.0309 15.433 66.2942 16.7036 67.8559 16.7106C69.4316 16.7176 70.6879 15.4749 70.7018 13.9041C70.7157 12.2983 69.4802 11.0347 67.8906 11.0277ZM117.304 14.2322H109.954C109.829 15.049 110.565 16.1521 111.495 16.571C112.793 17.1504 114.077 16.7664 115.146 15.44C115.694 15.6634 116.263 15.8868 116.826 16.1102C116.215 17.6671 114.028 19.2169 111.203 18.442C108.795 17.7857 107.379 15.3353 107.927 12.8359C108.503 10.2458 110.877 8.70987 113.577 9.17763C115.909 9.58255 117.575 11.8166 117.304 14.2322ZM110.12 12.6544H115.049C114.847 11.684 113.869 10.9439 112.73 10.8881C111.557 10.8322 110.454 11.5653 110.12 12.6544ZM55.9172 9.30329V10.0014C56.0283 9.93162 56.1046 9.88973 56.174 9.83388C57.2638 9.02404 58.4438 8.83554 59.6654 9.415C60.887 9.99446 61.5326 11.0347 61.5534 12.3961C61.5881 14.3369 61.5673 16.2847 61.5673 18.2256C61.5673 18.2954 61.5534 18.3582 61.5465 18.442H59.5335V18.079V12.8429C59.5335 11.6979 58.8325 10.9579 57.7635 10.9579C56.6877 10.9649 55.9311 11.7398 55.9311 12.8499C55.9241 14.6999 55.9311 16.55 55.9311 18.428H53.932V9.30329H55.9172ZM74.6096 4.70951H76.5809V18.428H74.6096V4.70951ZM102.013 9.30329H103.998V10.6298C104.123 10.4482 104.2 10.3435 104.276 10.2388C104.894 9.34518 105.817 8.9612 106.796 9.16367C107.046 9.21253 107.157 9.29631 107.157 9.29631C107.157 9.79898 107.15 10.6367 107.15 11.0766C106.719 11.0766 106.303 11.0207 105.907 11.0836C104.797 11.2651 104.04 12.2774 104.026 13.5899C104.005 15.063 104.019 16.543 104.019 18.0161V18.4211H102.02C102.013 15.3981 102.013 12.3612 102.013 9.30329ZM98.0429 9.30329H100.035V18.435H98.0429V9.30329ZM100.271 5.74974C100.271 6.42694 99.7226 6.98546 99.0424 6.99244C98.3761 6.99942 97.7999 6.43392 97.793 5.7637C97.7861 5.07952 98.3622 4.49308 99.0493 4.50007C99.7226 4.50705 100.271 5.06556 100.271 5.74974ZM38.731 9.30329H40.7231V18.435H38.731V9.30329ZM38.488 5.7288C38.495 5.04462 39.0572 4.49308 39.7305 4.50007C40.4177 4.50705 40.9868 5.09349 40.966 5.77767C40.9452 6.44789 40.3691 7.0064 39.6958 6.98546C39.0156 6.97149 38.4811 6.41298 38.488 5.7288Z" fill="white"/>
<path d="M22.8257 17.0722C22.8257 17.8108 22.6249 18.2984 22.2234 18.6928C19.8282 21.0808 17.4331 23.4688 15.038 25.8495C14.2061 26.6742 12.9871 26.7172 12.1624 25.9643C11.2947 25.1683 11.2588 23.856 12.105 22.9883C13.1807 21.8911 14.2779 20.8011 15.375 19.7183C16.6873 18.4132 17.9996 17.108 19.3263 15.8101C19.9645 15.179 20.8178 15.0141 21.6066 15.3727C22.4098 15.7384 22.797 16.3766 22.8257 17.0722ZM0.000321689 9.5426C0.0146638 9.1697 0.208282 8.69642 0.602688 8.30918C2.99064 5.92839 5.3786 3.55478 7.75938 1.17399C8.25418 0.679193 8.84221 0.421035 9.5378 0.52143C10.3696 0.636167 10.9433 1.10228 11.2158 1.89827C11.4883 2.69426 11.3019 3.41136 10.7138 4.00656C9.57365 5.16109 8.41912 6.30846 7.27175 7.45583C6.01682 8.70359 4.76189 9.94418 3.49979 11.1848C2.86156 11.8158 2.00821 11.9664 1.2194 11.6222C0.452097 11.2923 -0.0140204 10.5609 0.000321689 9.5426Z" fill="#044EF4"/>
<path d="M1.63525 12.246C1.90775 12.2317 2.13006 12.2389 2.35236 12.2102C2.92604 12.1313 3.42084 11.8875 3.82959 11.4716C4.28854 11.0055 4.74749 10.5393 5.2136 10.0589C5.29966 10.1378 5.35702 10.1808 5.40722 10.231L10.6995 15.5232C11.2803 16.1041 11.4811 16.8068 11.2516 17.5956C11.0293 18.3558 10.5058 18.8362 9.73136 19.0155C9.06445 19.1661 8.42623 19.037 7.93143 18.5494C5.83748 16.477 3.76505 14.383 1.63525 12.246ZM21.205 14.7846C20.1294 14.677 19.3621 15.093 18.7167 15.8029C18.3653 16.1901 17.9852 16.5487 17.6052 16.9287C17.5263 16.857 17.4689 16.814 17.4187 16.7638C15.6546 14.9997 13.8834 13.2357 12.1193 11.4644C11.5385 10.8836 11.3377 10.1808 11.5743 9.39197C11.8038 8.63184 12.3273 8.15138 13.1017 7.97928C13.7902 7.82869 14.4284 7.97928 14.9232 8.47408C16.9741 10.5107 19.0179 12.5616 21.0616 14.6053C21.1046 14.6412 21.1261 14.677 21.205 14.7846Z" fill="#F72A72"/>
</svg>
