<svg width="24" height="24" viewBox="0 0 24 24" fill="none" xmlns="http://www.w3.org/2000/svg">
<path d="M16.65 22.35V17.55C16.65 17.1375 16.9875 16.8 17.4 16.8C17.8125 16.8 18.15 17.1375 18.15 17.55V21.6H18.6C19.0125 21.6 19.35 21.9375 19.35 22.35C19.35 22.7625 19.0125 23.1 18.6 23.1H17.4C16.9875 23.1 16.65 22.7625 16.65 22.35ZM12.0412 17.1638L13.2 19.0913L14.3587 17.1638C14.5312 16.875 14.8762 16.7363 15.2025 16.8263C15.5287 16.9163 15.75 17.2125 15.75 17.55V22.35C15.75 22.7625 15.4125 23.1 15 23.1C14.5875 23.1 14.25 22.7625 14.25 22.35V20.2575L13.8412 20.9363C13.7062 21.1613 13.4625 21.3 13.2 21.3C12.9375 21.3 12.6937 21.1613 12.5587 20.9363L12.15 20.2575V22.35C12.15 22.7625 11.8125 23.1 11.4 23.1C10.9875 23.1 10.65 22.7625 10.65 22.35V17.55C10.65 17.2125 10.875 16.9163 11.2012 16.8263C11.5275 16.7363 11.8725 16.875 12.045 17.1638H12.0412ZM7.34998 17.55C7.34998 17.7938 7.42123 18.03 7.55623 18.2325L7.79998 18.5963L8.04373 18.2325C8.17873 18.03 8.24998 17.7938 8.24998 17.55C8.24998 17.1375 8.58748 16.8 8.99998 16.8C9.41248 16.8 9.74998 17.1375 9.74998 17.55C9.74998 18.09 9.58873 18.615 9.29248 19.065L8.69998 19.95L9.29248 20.835C9.59248 21.285 9.74998 21.81 9.74998 22.35C9.74998 22.7625 9.41248 23.1 8.99998 23.1C8.58748 23.1 8.24998 22.7625 8.24998 22.35C8.24998 22.1063 8.17873 21.87 8.04373 21.6675L7.79998 21.3038L7.55623 21.6675C7.42123 21.87 7.34998 22.1063 7.34998 22.35C7.34998 22.7625 7.01248 23.1 6.59998 23.1C6.18748 23.1 5.84998 22.7625 5.84998 22.35C5.84998 21.81 6.01123 21.285 6.30748 20.835L6.89998 19.95L6.30748 19.065C6.00748 18.615 5.84998 18.09 5.84998 17.55C5.84998 17.1375 6.18748 16.8 6.59998 16.8C7.01248 16.8 7.34998 17.1375 7.34998 17.55Z" fill="currentColor"/>
<path d="M4.875 18.4464C4.875 17.5786 4.4929 16.875 3.63018 16.875H3.06213C2.19941 16.875 1.5 17.5786 1.5 18.4464V21.506C1.5 22.3738 2.19941 23.0774 3.06213 23.0774H3.63018C4.4929 23.0774 4.875 22.3738 4.875 21.506C4.875 20.4746 2.92012 22.3274 2.92012 21.2024V18.75C2.92012 17.4562 4.87499 19.7284 4.875 18.4464Z" fill="currentColor"/>
<path d="M9.44255 1.81125C9.9938 1.8675 10.5075 2.1075 10.9013 2.50125L15.4988 7.095C15.9488 7.545 16.2 8.15625 16.2 8.79V14.3963H14.4V9.59625H11.1C9.60755 9.59625 8.40005 8.38875 8.40005 6.89625V3.59625H4.20005C3.87005 3.59625 3.60005 3.86625 3.60005 4.19625V14.4H1.80005V4.2C1.80005 2.87625 2.8763 1.8 4.20005 1.8H9.2063L9.44255 1.81125ZM10.2 6.9C10.2 7.39875 10.6013 7.8 11.1 7.8H13.6538L10.2 4.34625V6.9Z" fill="currentColor"/>
</svg>
