<svg width="24" height="24" viewBox="0 0 24 24" fill="none" xmlns="http://www.w3.org/2000/svg">
<path d="M14.2415 15.2446C14.2415 15.3837 14.2639 15.4949 14.3 15.5864C14.3349 15.6744 14.3909 15.7636 14.4788 15.855C14.5724 15.9464 14.7026 16.0439 14.8811 16.1411L15.0325 16.2153C15.1924 16.2879 15.3792 16.3577 15.595 16.4243L15.5989 16.4253L16.6399 16.7475C16.6426 16.7484 16.6451 16.7496 16.6477 16.7505C17.0779 16.8831 17.4686 17.0365 17.8118 17.2163C18.1615 17.3996 18.4747 17.6192 18.7346 17.8823C18.7362 17.8839 18.737 17.8865 18.7385 17.8882C18.9329 18.0814 19.0969 18.2969 19.2239 18.5356L19.3401 18.7856L19.345 18.8003L19.4231 19.0288C19.4247 19.0336 19.4266 19.0386 19.428 19.0434C19.5034 19.307 19.5383 19.5813 19.5383 19.8618C19.5383 20.4883 19.3746 21.0744 19.0344 21.5913C18.6994 22.1001 18.2366 22.4869 17.675 22.7573C17.1039 23.0323 16.4662 23.1577 15.7844 23.1577C15.1298 23.1577 14.5167 23.0444 13.968 22.7905C13.9618 22.7876 13.9564 22.7831 13.9504 22.7798C13.4249 22.5302 12.9828 22.1786 12.6506 21.7163L12.6477 21.7134L12.6418 21.7046C12.3077 21.2275 12.1255 20.6838 12.0862 20.0962C12.071 19.8682 12.1517 19.6436 12.3079 19.477C12.4645 19.3103 12.6836 19.2164 12.9114 19.2163H13.1985L13.2258 19.2182L13.3264 19.227L13.3557 19.2309C13.6698 19.2914 13.9235 19.5298 14.0012 19.8413L14.0227 19.979L14.0481 20.1587C14.0833 20.3288 14.149 20.4735 14.2415 20.6011L14.3459 20.7261C14.461 20.8464 14.6088 20.9519 14.801 21.0395L15.0012 21.1157C15.2159 21.1826 15.4742 21.2212 15.7844 21.2212C16.2154 21.2212 16.5535 21.1463 16.8196 21.0239L17.011 20.9204C17.1822 20.8131 17.3094 20.6888 17.4036 20.5473L17.4495 20.4722C17.5429 20.3082 17.5979 20.1114 17.5979 19.8618C17.5978 19.6579 17.5541 19.5162 17.4934 19.4116L17.4915 19.4087L17.4348 19.3257C17.3666 19.2386 17.2605 19.1401 17.095 19.0376C16.867 18.8964 16.5359 18.7503 16.0803 18.6108L16.0784 18.6098L15.0383 18.2876H15.0334C14.2376 18.0374 13.5565 17.6808 13.0676 17.1743L13.0627 17.1694C12.5551 16.6379 12.3001 15.9801 12.3 15.2446C12.3 14.6418 12.4608 14.0785 12.7922 13.5805C13.1137 13.0946 13.5509 12.7194 14.0803 12.4536L14.0823 12.4526C14.6246 12.1824 15.2223 12.0571 15.8567 12.0571C16.4942 12.0572 17.0936 12.1834 17.6292 12.4643C18.1505 12.7379 18.5757 13.1236 18.8889 13.6157C19.2031 14.1096 19.3733 14.6657 19.4114 15.2632C19.4259 15.4913 19.3448 15.7156 19.1887 15.8813C19.0523 16.0262 18.8681 16.1167 18.6711 16.1372L18.5862 16.1411H18.2991C17.866 16.1411 17.5049 15.8069 17.4739 15.3745C17.443 14.9447 17.2877 14.63 17.0149 14.3784L17.0129 14.3764L16.9133 14.2934C16.6691 14.1084 16.3358 13.9927 15.8567 13.9927C15.4978 13.9927 15.2065 14.0613 14.9661 14.1782C14.7189 14.2984 14.544 14.4515 14.4192 14.6343C14.4179 14.6363 14.4176 14.6391 14.4163 14.6411C14.3043 14.8045 14.2415 14.9959 14.2415 15.2446ZM11.7483 13.312C11.748 13.7683 11.3767 14.1362 10.9211 14.1362H7.09692V16.6382H10.4905C10.9461 16.6383 11.3163 17.0074 11.3167 17.4634V17.7514C11.3161 18.2072 10.946 18.5756 10.4905 18.5757H7.09692V22.1889C7.09692 22.6455 6.72545 23.0141 6.26978 23.0141H5.98267C5.52717 23.0139 5.15649 22.6454 5.15649 22.1889V13.0259C5.15649 12.5694 5.52717 12.2009 5.98267 12.2007H10.9211C11.3768 12.2007 11.7483 12.5693 11.7483 13.0259V13.312Z" fill="currentColor"/>
<path d="M12.301 9.43145C12.7172 9.43145 13.2516 9.62071 13.6057 9.89727C13.7823 10.0353 13.9548 10.2266 14.0109 10.4676C14.0735 10.7365 13.976 10.9936 13.757 11.2C13.5911 11.3564 13.4354 11.4708 13.2736 11.5193C13.0842 11.5761 12.9307 11.5313 12.8137 11.4725C12.6043 11.3671 12.552 11.2811 12.301 11.2811C12.0534 11.2811 12.0137 11.3625 11.8088 11.4695C11.6902 11.5315 11.5391 11.5748 11.3498 11.5193C11.1896 11.4723 11.0288 11.3621 10.8527 11.2068C10.6239 11.0051 10.512 10.7478 10.5725 10.4715C10.6263 10.2258 10.804 10.0334 10.9826 9.89629C11.342 9.62038 11.886 9.43154 12.301 9.43145ZM12.301 5.48223C14.1681 5.48223 15.844 6.32015 16.966 7.63359C17.3001 8.02223 17.2466 8.60674 16.8635 8.93633C16.4763 9.26933 15.8898 9.22157 15.5588 8.83281C14.7725 7.91303 13.605 7.33184 12.301 7.33184C10.9968 7.33193 9.82937 7.91371 9.04317 8.83379L9.04219 8.83281C8.71062 9.22161 8.12916 9.2683 7.74043 8.9373C7.35115 8.60581 7.30577 8.0225 7.63692 7.63359C8.76146 6.31768 10.4341 5.48232 12.301 5.48223ZM12.301 0.900195C15.2312 0.900195 17.8917 2.07866 19.8254 3.98809C20.1876 4.34645 20.1922 4.93288 19.8332 5.2957C19.4972 5.6352 18.9615 5.66003 18.5969 5.36602L18.5266 5.30352C16.9245 3.7241 14.7287 2.7498 12.301 2.7498C9.87322 2.74989 7.67564 3.72443 6.07637 5.30352L5.98848 5.38945H5.9709C5.60753 5.65745 5.09322 5.62553 4.7668 5.2957C4.40783 4.93288 4.4124 4.34645 4.77461 3.98809C6.70828 2.07867 9.37101 0.900282 12.301 0.900195Z" fill="currentColor"/>
</svg>
