<svg width="24" height="24" viewBox="0 0 24 24" fill="none" xmlns="http://www.w3.org/2000/svg">
<path d="M6.89999 3.6C5.0775 3.6 3.6 5.0775 3.6 6.9V8.60625C3.6 9.00375 3.4425 9.38625 3.16125 9.6675L1.4625 11.3625C1.11 11.715 1.11 12.285 1.4625 12.6337L3.16125 14.3325C3.4425 14.6138 3.6 14.9963 3.6 15.3937V17.1C3.6 18.9225 5.0775 20.4 6.89999 20.4H8.69999C9.19874 20.4 9.59999 19.9987 9.59999 19.5C9.59999 19.0012 9.19874 18.6 8.69999 18.6H6.89999C6.07124 18.6 5.39999 17.9287 5.39999 17.1V15.3937C5.39999 14.52 5.05124 13.68 4.43249 13.0612L3.37124 12L4.43249 10.9388C5.05124 10.32 5.39999 9.48 5.39999 8.60625V6.9C5.39999 6.07125 6.07124 5.4 6.89999 5.4H8.69999C9.19874 5.4 9.59999 4.99875 9.59999 4.5C9.59999 4.00125 9.19874 3.6 8.69999 3.6H6.89999ZM17.1 3.6H15.3C14.8012 3.6 14.4 4.00125 14.4 4.5C14.4 4.99875 14.8012 5.4 15.3 5.4H17.1C17.9287 5.4 18.6 6.07125 18.6 6.9V8.60625C18.6 9.48 18.9487 10.32 19.5675 10.9388L20.6287 12L19.5675 13.0612C18.9487 13.68 18.6 14.52 18.6 15.3937V17.1C18.6 17.9287 17.9287 18.6 17.1 18.6H15.3C14.8012 18.6 14.4 19.0012 14.4 19.5C14.4 19.9987 14.8012 20.4 15.3 20.4H17.1C18.9225 20.4 20.4 18.9225 20.4 17.1V15.3937C20.4 14.9963 20.5575 14.6138 20.8387 14.3325L22.5375 12.6375C22.89 12.285 22.89 11.715 22.5375 11.3663L20.8387 9.6675C20.5575 9.38625 20.4 9.00375 20.4 8.60625V6.9C20.4 5.0775 18.9225 3.6 17.1 3.6Z" fill="currentColor"/>
<path d="M11.6625 13.2815C11.9363 13.5628 12.032 13.9024 11.922 14.2846C11.8162 14.6517 11.5699 14.8868 11.2043 14.9713C10.8878 15.0439 10.5855 14.9824 10.3535 14.7469C9.48185 13.8629 8.61799 12.9716 7.73904 12.0674C8.08422 12.0284 8.41355 11.8695 8.68064 11.6016L8.68123 11.6004C8.90635 11.3736 9.12971 11.145 9.35447 10.9178C10.1238 11.7055 10.8933 12.4932 11.6625 13.2815Z" fill="currentColor"/>
<path d="M12.8021 9.62755C13.1264 9.55463 13.4281 9.62799 13.6652 9.86837C14.5368 10.7519 15.4046 11.6388 16.2691 12.5285C15.919 12.5673 15.5869 12.7306 15.3211 12.9979L14.6467 13.6799C13.8763 12.8914 13.1065 12.1031 12.3369 11.315C12.0635 11.0337 11.9676 10.6935 12.0802 10.3113C12.1885 9.94457 12.4354 9.70987 12.8021 9.62755Z" fill="currentColor"/>
<path d="M17.3999 14.0296C17.3999 14.3878 17.305 14.6223 17.116 14.8154C15.9836 15.9734 14.8507 17.1297 13.7174 18.2842C13.3231 18.6854 12.7488 18.7052 12.3583 18.3384C11.9471 17.9517 11.9308 17.3174 12.3329 16.8974C12.8434 16.3645 13.3615 15.8389 13.8785 15.3126C14.4998 14.6803 15.1224 14.0497 15.7464 13.4206C16.0487 13.1167 16.4538 13.0364 16.8246 13.2091C17.1954 13.3817 17.3884 13.6927 17.3999 14.0296Z" fill="currentColor"/>
<path d="M6.60011 10.3817C6.60554 10.2007 6.69951 9.97138 6.88407 9.78275C8.01242 8.63009 9.14101 7.47754 10.2698 6.32511C10.5046 6.08506 10.7814 5.96208 11.1122 6.01037C11.504 6.06943 11.7778 6.29245 11.9054 6.67806C12.0329 7.06367 11.9447 7.41211 11.6679 7.70045C11.1285 8.26115 10.5823 8.81629 10.0395 9.37143C9.44645 9.9752 8.85185 10.5774 8.25567 11.1779C7.95238 11.4822 7.54833 11.5569 7.1765 11.3905C6.81486 11.2297 6.59367 10.875 6.60011 10.3817Z" fill="currentColor"/>
</svg>
