<svg width="24" height="24" viewBox="0 0 24 24" fill="none" xmlns="http://www.w3.org/2000/svg">
<path d="M9.44255 1.81125C9.9938 1.8675 10.5075 2.1075 10.9013 2.50125L15.4988 7.095C15.9488 7.545 16.2 8.15625 16.2 8.79V14.3963H14.4V9.59625H11.1C9.60755 9.59625 8.40005 8.38875 8.40005 6.89625V3.59625H4.20005C3.87005 3.59625 3.60005 3.86625 3.60005 4.19625V14.4H1.80005V4.2C1.80005 2.87625 2.8763 1.8 4.20005 1.8H9.2063L9.44255 1.81125ZM10.2 6.9C10.2 7.39875 10.6013 7.8 11.1 7.8H13.6538L10.2 4.34625V6.9Z" fill="currentColor"/>
<path d="M4.40527 20.4888C4.40527 20.2288 4.32901 20.1508 4.26055 20.0974C4.1348 19.9994 3.95118 19.9368 3.6125 19.8238C3.32583 19.7281 2.9052 19.5885 2.57305 19.2877C2.20251 18.952 2 18.4785 2 17.8498C2.00004 17.442 2.11165 17.0802 2.3416 16.7857C2.56591 16.4984 2.86611 16.3221 3.16426 16.2115C3.73695 15.9992 4.4422 15.9818 5.00527 15.9818C5.33661 15.9818 5.60527 16.2505 5.60527 16.5818V16.8929C5.60519 17.2242 5.33656 17.4929 5.00527 17.4929C4.50185 17.4929 4.08888 17.4773 3.77656 17.5603C3.63602 17.5977 3.58049 17.6407 3.56035 17.6629C3.55128 17.6729 3.51586 17.7114 3.51582 17.8498C3.51582 18.1169 3.59349 18.1874 3.6582 18.2347C3.78745 18.3293 3.97634 18.3848 4.32969 18.4896C4.62721 18.5779 5.06412 18.7086 5.41016 19.0135C5.79616 19.3535 6.00195 19.8407 6.00195 20.4888C6.0019 20.9517 5.83865 21.3405 5.5625 21.6402C5.29817 21.9271 4.95599 22.1059 4.625 22.2191C3.9698 22.4431 3.20946 22.4605 2.68027 22.416C2.36957 22.3898 2.13075 22.1301 2.13066 21.8183V21.5623C2.13078 21.231 2.39936 20.9623 2.73066 20.9623C3.24152 20.9623 3.71374 20.9571 4.05957 20.8533C4.22292 20.8043 4.30426 20.7478 4.34258 20.7056C4.3688 20.6768 4.40524 20.6243 4.40527 20.4888ZM7.92969 15.9818C8.26096 15.9819 8.52969 16.2505 8.52969 16.5818V19.4312V20L9.62772 19.4312L10.6654 20V19.4312V16.5818C10.6654 16.2505 10.9341 15.9819 11.2654 15.9818H11.4447C11.7761 15.9818 12.0447 16.2504 12.0447 16.5818V21.8183C12.0446 22.1496 11.776 22.4183 11.4447 22.4183H11.2654L9.62772 21.5L7.92969 22.4183H7.75039C7.41907 22.4183 7.15048 22.1496 7.15039 21.8183V16.5818C7.15039 16.2504 7.41902 15.9818 7.75039 15.9818H7.92969ZM13.7826 15.9818L13.8646 15.9877C14.0533 16.0137 14.2205 16.1285 14.3117 16.2994L15.4947 18.5142L16.6777 16.2994L16.7211 16.2297C16.8329 16.0753 17.013 15.9818 17.2068 15.9818H17.3211C17.6524 15.9819 17.9211 16.2505 17.9211 16.5818V21.8183C17.921 22.1496 17.6524 22.4183 17.3211 22.4183H17.1904C16.8592 22.4183 16.5905 22.1496 16.5904 21.8183V19.3931L16.0854 20.3084C15.9797 20.4996 15.7782 20.6183 15.5598 20.6183H15.4297C15.2113 20.6183 15.0097 20.4996 14.9041 20.3084L14.399 19.3931V21.8183C14.3989 22.1496 14.1302 22.4182 13.799 22.4183H13.6684C13.337 22.4183 13.0684 22.1496 13.0684 21.8183V16.5818C13.0684 16.2504 13.337 15.9818 13.6684 15.9818H13.7826ZM19.615 15.9818C19.9464 15.9819 20.215 16.2505 20.215 16.5818V21.0543H21.1021C21.4334 21.0543 21.702 21.323 21.7021 21.6543V21.8183C21.7021 22.1496 21.4335 22.4183 21.1021 22.4183H19.4844C19.1531 22.4183 18.8845 22.1496 18.8844 21.8183V16.5818C18.8844 16.2505 19.1531 15.9819 19.4844 15.9818H19.615Z" fill="currentColor"/>
</svg>
