<svg width="24" height="24" viewBox="0 0 24 24" fill="none" xmlns="http://www.w3.org/2000/svg">
<path d="M20.3423 10.8102C20.342 8.92204 18.6686 7.56444 16.7933 7.56433H3.81878C3.88252 7.7157 3.96596 7.87235 4.07865 8.02547C4.6994 8.86875 5.47737 9.39107 6.41606 9.39107C6.65189 9.91336 6.70788 10.8536 7.55762 11.2751C8.25799 11.6225 9.61749 11.6721 9.80531 11.6721C9.91303 11.87 10.1475 12.9143 10.7067 13.363C10.9819 13.5839 11.4031 13.7368 12.0188 13.8114C12.6307 13.8856 13.3556 13.8743 14.1767 13.8293C14.9634 13.7861 15.893 13.7083 16.7614 13.6739C17.9218 13.6278 19.0309 14.017 19.9168 14.6102C20.0641 14.7088 20.2049 14.8172 20.3423 14.9286C20.3409 13.7441 20.3423 12.2878 20.3423 10.8102ZM21.9079 17.228C21.903 17.6048 21.6296 17.9242 21.2582 17.9885C20.887 18.0526 20.5233 17.8435 20.392 17.4904C20.1898 16.9462 19.7122 16.3585 19.0455 15.9121C18.3843 15.4694 17.5973 15.2062 16.8238 15.2369C15.9521 15.2715 15.1322 15.3446 14.2621 15.3923C13.4262 15.4382 12.5865 15.4573 11.8302 15.3656C11.0776 15.2743 10.3257 15.0639 9.72704 14.5834C9.26406 14.2118 8.9418 13.7187 8.76271 13.1108C8.14582 13.0777 7.46825 12.9783 6.86208 12.6777C6.08368 12.2916 5.4976 11.6192 5.21878 10.5885C4.09015 10.2211 3.31724 9.63 2.81879 8.95286C2.26144 8.19563 2.0863 7.38485 2.0863 6.78216C2.0863 6.3499 2.43621 6 2.86847 6H16.7933C19.3269 6.00012 21.9076 7.86483 21.9079 10.8102C21.9079 13.5244 21.9209 16.2112 21.9079 17.228Z" fill="currentColor"/>
</svg>
