<svg width="1512" height="982" viewBox="0 0 1512 982" fill="none" xmlns="http://www.w3.org/2000/svg">
<g clip-path="url(#clip0_99_3964)">
<circle cx="1390.03" cy="446.713" r="1.21175" fill="white" fill-opacity="0.1"/>
<circle cx="308.704" cy="715.04" r="1.21175" fill="white" fill-opacity="0.3"/>
<circle cx="1188.04" cy="679.661" r="1.21175" fill="white" fill-opacity="0.6"/>
<circle cx="1062.15" cy="801.763" r="1.21175" fill="white" fill-opacity="0.6"/>
<circle cx="1258.96" cy="285.106" r="1.21175" fill="white" fill-opacity="0.1"/>
<circle cx="1476.56" cy="528.849" r="1.21175" fill="white" fill-opacity="0.1"/>
<circle cx="1330.14" cy="908.388" r="1.21175" fill="white" fill-opacity="0.3"/>
<circle cx="1037.06" cy="675.169" r="1.21175" fill="white" fill-opacity="0.3"/>
<circle cx="51.7801" cy="410.454" r="1.21175" fill="white" fill-opacity="0.3"/>
<circle cx="1282.3" cy="643.255" r="1.21175" fill="white" fill-opacity="0.15"/>
<circle cx="835.428" cy="635.932" r="1.21175" fill="white" fill-opacity="0.7"/>
<circle cx="533.393" cy="654.157" r="1.21175" fill="white" fill-opacity="0.15"/>
<circle cx="1447.27" cy="201.276" r="1.21175" fill="white" fill-opacity="0.3"/>
<circle cx="269.869" cy="778.221" r="1.21175" fill="white" fill-opacity="0.1"/>
<circle cx="1328.38" cy="944.208" r="1.21175" fill="white" fill-opacity="0.3"/>
<circle cx="1078.35" cy="402.202" r="1.21175" fill="white" fill-opacity="0.15"/>
<circle cx="909.339" cy="329.798" r="1.21175" fill="white" fill-opacity="0.3"/>
<circle cx="612.452" cy="404.928" r="1.21175" fill="white" fill-opacity="0.1"/>
<circle cx="1361.79" cy="873.766" r="1.21175" fill="white" fill-opacity="0.3"/>
<circle cx="1059.91" cy="161.751" r="1.21175" fill="white" fill-opacity="0.1"/>
<circle cx="318.48" cy="250.474" r="1.21175" fill="white" fill-opacity="0.3"/>
<circle cx="17.0828" cy="530.825" r="1.21175" fill="white" fill-opacity="0.3"/>
<circle cx="112.08" cy="943.934" r="1.21175" fill="white" fill-opacity="0.1"/>
<circle cx="834.587" cy="167.32" r="1.21175" fill="white" fill-opacity="0.3"/>
<circle cx="1367.46" cy="371.371" r="1.21175" fill="white" fill-opacity="0.1"/>
<circle cx="801.708" cy="327.44" r="1.21175" fill="white" fill-opacity="0.3"/>
<circle cx="1411.98" cy="978.786" r="1.21175" fill="white" fill-opacity="0.1"/>
<circle cx="1248.36" cy="842.595" r="1.21175" fill="white" fill-opacity="0.6"/>
<circle cx="669.235" cy="228.528" r="1.21175" fill="white" fill-opacity="0.15"/>
<circle cx="1314.35" cy="238.212" r="1.21175" fill="white" fill-opacity="0.1"/>
<circle cx="1117.19" cy="941.309" r="1.21175" fill="white" fill-opacity="0.3"/>
<circle cx="197.048" cy="545.92" r="1.21175" fill="white" fill-opacity="0.3"/>
<circle cx="534.717" cy="891.056" r="1.21175" fill="white" fill-opacity="0.1"/>
<circle cx="250.699" cy="602.733" r="1.21175" fill="white" fill-opacity="0.6"/>
<circle cx="542.219" cy="204.613" r="1.21175" fill="white" fill-opacity="0.3"/>
<circle cx="969.837" cy="564.205" r="1.21175" fill="white" fill-opacity="0.3"/>
<circle cx="224.388" cy="543.376" r="1.21175" fill="white" fill-opacity="0.3"/>
<circle cx="694.211" cy="728.043" r="1.21175" fill="white" fill-opacity="0.3"/>
<circle cx="236.005" cy="322.884" r="1.21175" fill="white" fill-opacity="0.15"/>
<circle cx="554.7" cy="552.681" r="1.21175" fill="white" fill-opacity="0.3"/>
<circle cx="690.456" cy="361.987" r="1.21175" fill="white" fill-opacity="0.1"/>
<circle cx="574.331" cy="433.904" r="1.81763" fill="white" fill-opacity="0.3"/>
<circle cx="494.063" cy="411.803" r="1.81763" fill="white" fill-opacity="0.3"/>
<circle cx="1273.46" cy="461.675" r="1.81763" fill="white" fill-opacity="0.3"/>
<circle cx="1457.16" cy="142.855" r="1.81763" fill="white" fill-opacity="0.1"/>
<circle cx="897.73" cy="415.692" r="1.81763" fill="white" fill-opacity="0.1"/>
<circle cx="550.809" cy="338.726" r="1.81763" fill="white" fill-opacity="0.1"/>
<circle cx="503.584" cy="427.073" r="1.81763" fill="white" fill-opacity="0.15"/>
<circle cx="262.652" cy="385.793" r="1.81763" fill="white" fill-opacity="0.1"/>
<circle cx="1455.43" cy="259.913" r="1.81763" fill="white" fill-opacity="0.1"/>
<circle cx="790.748" cy="47.8088" r="1.81763" fill="white" fill-opacity="0.15"/>
<circle cx="544.671" cy="511.653" r="1.81763" fill="white" fill-opacity="0.1"/>
<circle cx="579.217" cy="535.722" r="1.81763" fill="white" fill-opacity="0.3"/>
<circle cx="1455.22" cy="231.887" r="1.81763" fill="white" fill-opacity="0.1"/>
<circle cx="280.708" cy="280.747" r="1.81763" fill="white" fill-opacity="0.3"/>
<circle cx="1155.92" cy="484.475" r="1.81763" fill="white" fill-opacity="0.7"/>
<circle cx="1473.55" cy="336.171" r="1.81763" fill="white" fill-opacity="0.1"/>
<circle cx="67.551" cy="732.685" r="1.81763" fill="white" fill-opacity="0.1"/>
<circle cx="3.41724" cy="17.7883" r="1.81763" fill="white" fill-opacity="0.7"/>
<circle cx="1206.58" cy="939.805" r="1.81763" fill="white" fill-opacity="0.3"/>
<circle cx="810.302" cy="164.632" r="1.81763" fill="white" fill-opacity="0.1"/>
<circle cx="1463.7" cy="637.912" r="1.81763" fill="white" fill-opacity="0.3"/>
<circle cx="485.916" cy="916.327" r="1.81763" fill="white" fill-opacity="0.1"/>
<circle cx="1215.33" cy="698.628" r="1.81763" fill="white" fill-opacity="0.6"/>
<circle cx="1230.38" cy="95.8293" r="1.81763" fill="white" fill-opacity="0.3"/>
<circle cx="15.218" cy="818.882" r="1.81763" fill="white" fill-opacity="0.3"/>
<circle cx="1378.43" cy="1.81251" r="0.605482" fill="white" fill-opacity="0.1"/>
<circle cx="674.899" cy="601.717" r="0.605482" fill="white" fill-opacity="0.1"/>
<circle cx="699.455" cy="315.255" r="0.605482" fill="white" fill-opacity="0.1"/>
<circle cx="43.0264" cy="439.654" r="0.605482" fill="white" fill-opacity="0.1"/>
<circle cx="1435.37" cy="437.684" r="0.605482" fill="white" fill-opacity="0.3"/>
<circle cx="331.275" cy="140.648" r="0.605482" fill="white" fill-opacity="0.15"/>
<circle cx="564.499" cy="719.789" r="0.605482" fill="white" fill-opacity="0.15"/>
<circle cx="244.503" cy="908.504" r="0.605482" fill="white" fill-opacity="0.1"/>
<circle cx="792.706" cy="637.412" r="0.605482" fill="white" fill-opacity="0.1"/>
<circle cx="1345.33" cy="940.406" r="0.605482" fill="white" fill-opacity="0.7"/>
<circle cx="118.172" cy="705.24" r="0.605482" fill="white" fill-opacity="0.6"/>
<circle cx="133.855" cy="109.741" r="0.605482" fill="white" fill-opacity="0.1"/>
<circle cx="310.809" cy="313.986" r="0.605482" fill="white" fill-opacity="0.15"/>
<circle cx="374.554" cy="392.089" r="0.605482" fill="white" fill-opacity="0.3"/>
<circle cx="314.917" cy="439.501" r="0.605482" fill="white" fill-opacity="0.1"/>
<circle cx="963.399" cy="933.629" r="0.605482" fill="white" fill-opacity="0.6"/>
<circle cx="1146.08" cy="929.741" r="0.605482" fill="white" fill-opacity="0.1"/>
<circle cx="922.353" cy="536.155" r="0.605482" fill="white" fill-opacity="0.1"/>
<circle cx="1359.52" cy="618.178" r="0.605482" fill="white" fill-opacity="0.15"/>
<circle cx="1.66115" cy="527.449" r="0.605482" fill="white" fill-opacity="0.3"/>
<circle cx="573.345" cy="804.034" r="0.605482" fill="white" fill-opacity="0.3"/>
<circle cx="1416.47" cy="168.706" r="0.605482" fill="white" fill-opacity="0.3"/>
<circle cx="1182.39" cy="300.08" r="0.605482" fill="white" fill-opacity="0.1"/>
<circle cx="138.39" cy="67.2891" r="0.605482" fill="white" fill-opacity="0.3"/>
<circle cx="49.2178" cy="101.741" r="0.605482" fill="white" fill-opacity="0.1"/>
<circle cx="826.974" cy="291.547" r="0.605482" fill="white" fill-opacity="0.15"/>
<circle cx="848.723" cy="944.008" r="0.605482" fill="white" fill-opacity="0.7"/>
<circle cx="1037.8" cy="409.787" r="0.605482" fill="white" fill-opacity="0.8"/>
<circle cx="674.634" cy="124.423" r="0.605482" fill="white" fill-opacity="0.15"/>
<circle cx="204.836" cy="748.016" r="0.605482" fill="white" fill-opacity="0.1"/>
<circle cx="415.269" cy="644.005" r="0.605482" fill="white" fill-opacity="0.1"/>
<circle cx="408.091" cy="41.5684" r="0.605482" fill="white" fill-opacity="0.6"/>
<circle cx="1118.21" cy="477.112" r="0.605482" fill="white" fill-opacity="0.15"/>
<circle cx="1087.16" cy="60.1055" r="0.605482" fill="white" fill-opacity="0.1"/>
<circle cx="157.306" cy="98.5742" r="0.605482" fill="white" fill-opacity="0.6"/>
<circle cx="365.812" cy="782.732" r="0.605482" fill="white" fill-opacity="0.15"/>
<circle cx="1019.34" cy="164.527" r="0.605482" fill="white" fill-opacity="0.7"/>
<circle cx="695.774" cy="459.645" r="0.605482" fill="white" fill-opacity="0.8"/>
<circle cx="625.971" cy="131.053" r="0.605482" fill="white" fill-opacity="0.1"/>
<circle cx="89.9561" cy="370.068" r="0.605482" fill="white" fill-opacity="0.6"/>
<circle cx="1195.32" cy="245.445" r="0.605482" fill="white" fill-opacity="0.1"/>
<circle cx="1033.91" cy="230.05" r="0.605482" fill="white" fill-opacity="0.15"/>
<circle cx="1322.2" cy="734.401" r="0.605482" fill="white" fill-opacity="0.15"/>
<circle cx="688.053" cy="35.9951" r="0.605482" fill="white" fill-opacity="0.1"/>
<circle cx="448.039" cy="796.026" r="0.605482" fill="white" fill-opacity="0.15"/>
<circle cx="457.806" cy="493.476" r="0.605482" fill="white" fill-opacity="0.3"/>
<circle cx="994.646" cy="788.544" r="0.605482" fill="white" fill-opacity="0.3"/>
<circle cx="237.368" cy="816.793" r="0.605482" fill="white" fill-opacity="0.1"/>
<circle cx="979.401" cy="533.152" r="0.605482" fill="white" fill-opacity="0.3"/>
<circle cx="737.543" cy="212.071" r="0.605482" fill="white" fill-opacity="0.1"/>
<circle cx="240.169" cy="225.032" r="0.605482" fill="white" fill-opacity="0.1"/>
<circle cx="43.0205" cy="799.827" r="0.605482" fill="white" fill-opacity="0.1"/>
<circle cx="1238.48" cy="839.961" r="0.605482" fill="white" fill-opacity="0.1"/>
<circle cx="1201.85" cy="141.716" r="0.605482" fill="white" fill-opacity="0.3"/>
<circle cx="976.741" cy="769.113" r="0.605482" fill="white" fill-opacity="0.1"/>
<circle cx="399.071" cy="291.508" r="0.605482" fill="white" fill-opacity="0.6"/>
<circle cx="160.582" cy="663.779" r="0.605482" fill="white" fill-opacity="0.1"/>
<circle cx="60.0703" cy="849.712" r="0.605482" fill="white" fill-opacity="0.3"/>
<circle cx="757.29" cy="135.648" r="0.605482" fill="white" fill-opacity="0.3"/>
<circle cx="7.77931" cy="371.588" r="0.605482" fill="white" fill-opacity="0.6"/>
<circle cx="623.816" cy="853.528" r="0.605482" fill="white" fill-opacity="0.1"/>
<circle cx="765.58" cy="224.502" r="0.605482" fill="white" fill-opacity="0.3"/>
<circle cx="1067.62" cy="745.558" r="0.605482" fill="white" fill-opacity="0.1"/>
<circle cx="78.7373" cy="273.218" r="0.605482" fill="white" fill-opacity="0.1"/>
<circle cx="108.84" cy="361.797" r="0.605482" fill="white" fill-opacity="0.3"/>
<circle cx="630.22" cy="129.322" r="0.605482" fill="white" fill-opacity="0.1"/>
<circle cx="1484.49" cy="46.8213" r="0.605482" fill="white" fill-opacity="0.1"/>
<circle cx="1145.8" cy="896.426" r="0.605482" fill="white" fill-opacity="0.3"/>
<circle cx="194.686" cy="13.1016" r="0.605482" fill="white" fill-opacity="0.1"/>
<circle cx="1410.89" cy="853.029" r="0.605482" fill="white" fill-opacity="0.15"/>
<circle cx="1041.7" cy="493.207" r="0.605482" fill="white" fill-opacity="0.3"/>
<circle cx="1217.37" cy="519.287" r="0.605482" fill="white" fill-opacity="0.3"/>
<circle cx="7.98439" cy="383.581" r="0.605482" fill="white" fill-opacity="0.1"/>
<circle cx="498.076" cy="403.228" r="0.605482" fill="white" fill-opacity="0.1"/>
<circle cx="1048.05" cy="140.68" r="0.605482" fill="white" fill-opacity="0.1"/>
<circle cx="1054.16" cy="853.766" r="0.605482" fill="white" fill-opacity="0.1"/>
<circle cx="28.8662" cy="167.645" r="0.605482" fill="white" fill-opacity="0.1"/>
<circle cx="673.352" cy="345.835" r="0.605482" fill="white" fill-opacity="0.3"/>
<circle cx="516.199" cy="962.613" r="0.605482" fill="white" fill-opacity="0.15"/>
<circle cx="498.748" cy="465.798" r="0.605482" fill="white" fill-opacity="0.1"/>
<circle cx="399.467" cy="189.047" r="0.605482" fill="white" fill-opacity="0.15"/>
<circle cx="894.247" cy="155.886" r="0.605482" fill="white" fill-opacity="0.1"/>
<circle cx="643.484" cy="104.451" r="0.605482" fill="white" fill-opacity="0.1"/>
<circle cx="1160.39" cy="105.005" r="0.605482" fill="white" fill-opacity="0.3"/>
<circle cx="401.244" cy="64.9141" r="0.605482" fill="white" fill-opacity="0.15"/>
<circle cx="1009.91" cy="300.777" r="0.605482" fill="white" fill-opacity="0.3"/>
<circle cx="249.729" cy="676.646" r="0.605482" fill="white" fill-opacity="0.3"/>
<circle cx="1478.88" cy="560.404" r="0.605482" fill="white" fill-opacity="0.1"/>
<circle cx="390.06" cy="348.506" r="0.605482" fill="white" fill-opacity="0.3"/>
<circle cx="1018.84" cy="841.426" r="0.605482" fill="white" fill-opacity="0.1"/>
<circle cx="1485.92" cy="687.614" r="0.605482" fill="white" fill-opacity="0.1"/>
<circle cx="825.498" cy="440.907" r="0.605482" fill="white" fill-opacity="0.1"/>
<circle cx="443.007" cy="159.425" r="0.605482" fill="white" fill-opacity="0.7"/>
<circle cx="713.305" cy="166.271" r="0.605482" fill="white" fill-opacity="0.15"/>
<circle cx="593.691" cy="139.497" r="0.605482" fill="white" fill-opacity="0.1"/>
<circle cx="1071.93" cy="238.168" r="0.605482" fill="white" fill-opacity="0.3"/>
<circle cx="672.571" cy="15.1797" r="0.605482" fill="white" fill-opacity="0.15"/>
<circle cx="536.174" cy="42.9053" r="0.605482" fill="white" fill-opacity="0.1"/>
<circle cx="1003.27" cy="95.1826" r="0.605482" fill="white" fill-opacity="0.6"/>
<circle cx="848.263" cy="885.114" r="0.605482" fill="white" fill-opacity="0.1"/>
<circle cx="1050.06" cy="273.537" r="0.605482" fill="white" fill-opacity="0.3"/>
<circle cx="1239.28" cy="495.492" r="0.605482" fill="white" fill-opacity="0.7"/>
<circle cx="1512.21" cy="196.967" r="0.605482" fill="white" fill-opacity="0.1"/>
<circle cx="408.233" cy="651.756" r="0.605482" fill="white" fill-opacity="0.3"/>
<circle cx="291.629" cy="11.8467" r="0.605482" fill="white" fill-opacity="0.1"/>
<circle cx="556.618" cy="189.707" r="0.605482" fill="white" fill-opacity="0.1"/>
<circle cx="983.798" cy="233.823" r="0.605482" fill="white" fill-opacity="0.3"/>
<circle cx="632.449" cy="249.065" r="0.605482" fill="white" fill-opacity="0.3"/>
<circle cx="1359.34" cy="488.368" r="0.605482" fill="white" fill-opacity="0.1"/>
<circle cx="1210.11" cy="976.387" r="0.605482" fill="white" fill-opacity="0.1"/>
<circle cx="459.041" cy="842.423" r="0.605482" fill="white" fill-opacity="0.1"/>
<circle cx="65.96" cy="249.349" r="0.605482" fill="white" fill-opacity="0.15"/>
<circle cx="807.441" cy="350.844" r="0.605482" fill="white" fill-opacity="0.1"/>
<circle cx="982.94" cy="793.222" r="0.605482" fill="white" fill-opacity="0.3"/>
<circle cx="515.047" cy="75.1211" r="0.605482" fill="white" fill-opacity="0.15"/>
<circle cx="966.581" cy="908.606" r="0.605482" fill="white" fill-opacity="0.1"/>
<circle cx="703.325" cy="651.529" r="0.605482" fill="white" fill-opacity="0.3"/>
<circle cx="395.66" cy="507.974" r="0.605482" fill="white" fill-opacity="0.7"/>
<circle cx="487.783" cy="46.4531" r="0.605482" fill="white" fill-opacity="0.3"/>
<circle cx="544.841" cy="186.666" r="0.605482" fill="white" fill-opacity="0.3"/>
<circle cx="1501.94" cy="707.865" r="0.605482" fill="white" fill-opacity="0.7"/>
<circle cx="1141.38" cy="560.032" r="0.605482" fill="white" fill-opacity="0.1"/>
<circle cx="110.013" cy="752.773" r="0.605482" fill="white" fill-opacity="0.1"/>
<circle cx="473.926" cy="625.238" r="0.605482" fill="white" fill-opacity="0.1"/>
<circle cx="677.981" cy="170.645" r="0.605482" fill="white" fill-opacity="0.3"/>
<circle cx="810.711" cy="78.8633" r="0.605482" fill="white" fill-opacity="0.1"/>
<circle cx="266.021" cy="899.359" r="0.605482" fill="white" fill-opacity="0.1"/>
<circle cx="1034.17" cy="338.701" r="0.605482" fill="white" fill-opacity="0.1"/>
<circle cx="1340.07" cy="117.296" r="0.605482" fill="white" fill-opacity="0.6"/>
<circle cx="353.163" cy="867.473" r="0.605482" fill="white" fill-opacity="0.1"/>
<circle cx="134.121" cy="314.511" r="0.605482" fill="white" fill-opacity="0.3"/>
<circle cx="838.916" cy="518.713" r="0.605482" fill="white" fill-opacity="0.3"/>
<circle cx="1389.97" cy="607.742" r="0.605482" fill="white" fill-opacity="0.3"/>
<circle cx="1502.87" cy="803.383" r="0.605482" fill="white" fill-opacity="0.3"/>
<circle cx="1251.07" cy="963.021" r="0.605482" fill="white" fill-opacity="0.6"/>
<circle cx="330.896" cy="802.693" r="0.605482" fill="white" fill-opacity="0.3"/>
<circle cx="536.29" cy="443.316" r="0.605482" fill="white" fill-opacity="0.3"/>
<circle cx="523.233" cy="240.188" r="0.605482" fill="white" fill-opacity="0.1"/>
<circle cx="1007.77" cy="601.98" r="0.605482" fill="white" fill-opacity="0.3"/>
<circle cx="1401.38" cy="631.777" r="0.605482" fill="white" fill-opacity="0.3"/>
<circle cx="341.397" cy="982.18" r="0.605482" fill="white" fill-opacity="0.1"/>
<circle cx="397.004" cy="436.832" r="0.605482" fill="white" fill-opacity="0.15"/>
<circle cx="1380.11" cy="296.746" r="0.605482" fill="white" fill-opacity="0.3"/>
<circle cx="1217.63" cy="929.247" r="0.605482" fill="white" fill-opacity="0.15"/>
<circle cx="1340.19" cy="771.161" r="0.605482" fill="white" fill-opacity="0.6"/>
<circle cx="90.5498" cy="715.729" r="0.605482" fill="white" fill-opacity="0.15"/>
<circle cx="645.738" cy="671.716" r="0.605482" fill="white" fill-opacity="0.3"/>
<circle cx="696.39" cy="322.921" r="0.605482" fill="white" fill-opacity="0.3"/>
<circle cx="24.6377" cy="18.9004" r="0.605482" fill="white" fill-opacity="0.3"/>
<circle cx="745.486" cy="845.644" r="0.605482" fill="white" fill-opacity="0.1"/>
<circle cx="397.043" cy="519.848" r="0.605482" fill="white" fill-opacity="0.1"/>
<circle cx="378.721" cy="512.551" r="0.605482" fill="white" fill-opacity="0.3"/>
<circle cx="1048.83" cy="401.181" r="0.605482" fill="white" fill-opacity="0.1"/>
<circle cx="133.306" cy="90.3213" r="0.605482" fill="white" fill-opacity="0.15"/>
<circle cx="1198.49" cy="472.897" r="0.605482" fill="white" fill-opacity="0.6"/>
<circle cx="1193.27" cy="313.712" r="0.605482" fill="white" fill-opacity="0.3"/>
<circle cx="194.857" cy="931.827" r="0.605482" fill="white" fill-opacity="0.3"/>
<circle cx="734.14" cy="155.928" r="0.605482" fill="white" fill-opacity="0.1"/>
<circle cx="1496.75" cy="27.7539" r="0.605482" fill="white" fill-opacity="0.1"/>
<circle cx="1416.46" cy="47.5606" r="0.605482" fill="white" fill-opacity="0.3"/>
<circle cx="1093.2" cy="208.006" r="0.605482" fill="white" fill-opacity="0.3"/>
<circle cx="166.775" cy="253.986" r="0.605482" fill="white" fill-opacity="0.8"/>
<circle cx="1073.22" cy="349.584" r="0.605482" fill="white" fill-opacity="0.1"/>
<circle cx="95.7354" cy="692.811" r="0.605482" fill="white" fill-opacity="0.3"/>
<circle cx="1055.4" cy="774.455" r="0.605482" fill="white" fill-opacity="0.1"/>
<circle cx="518.281" cy="731.301" r="0.605482" fill="white" fill-opacity="0.1"/>
<circle cx="542.623" cy="746.605" r="0.605482" fill="white" fill-opacity="0.6"/>
<circle cx="905.356" cy="530.586" r="0.605482" fill="white" fill-opacity="0.3"/>
<circle cx="970.834" cy="197.588" r="0.605482" fill="white" fill-opacity="0.3"/>
<circle cx="1228" cy="884.674" r="0.605482" fill="white" fill-opacity="0.1"/>
<circle cx="1178.32" cy="466.198" r="0.605482" fill="white" fill-opacity="0.1"/>
<circle cx="80.7266" cy="546.229" r="0.605482" fill="white" fill-opacity="0.1"/>
<circle cx="1509.82" cy="646.014" r="0.605482" fill="white" fill-opacity="0.6"/>
<circle cx="1089" cy="293.297" r="0.605482" fill="white" fill-opacity="0.3"/>
<circle cx="1371.13" cy="859.991" r="0.605482" fill="white" fill-opacity="0.1"/>
<circle cx="789.782" cy="824.196" r="0.605482" fill="white" fill-opacity="0.1"/>
<circle cx="1190.45" cy="86.1162" r="0.605482" fill="white" fill-opacity="0.1"/>
<circle cx="657.128" cy="967.561" r="0.605482" fill="white" fill-opacity="0.15"/>
<circle cx="81.4268" cy="838.902" r="0.605482" fill="white" fill-opacity="0.1"/>
<circle cx="857.899" cy="133.187" r="0.605482" fill="white" fill-opacity="0.15"/>
<circle cx="320.385" cy="213.48" r="0.605482" fill="white" fill-opacity="0.3"/>
<circle cx="709.871" cy="846.652" r="0.605482" fill="white" fill-opacity="0.15"/>
<circle cx="1288.23" cy="273.555" r="0.605482" fill="white" fill-opacity="0.3"/>
<circle cx="424.356" cy="558.037" r="0.605482" fill="white" fill-opacity="0.1"/>
<circle cx="99.5547" cy="327.461" r="0.605482" fill="white" fill-opacity="0.3"/>
<circle cx="357.804" cy="273.22" r="0.605482" fill="white" fill-opacity="0.15"/>
<circle cx="1188.78" cy="154.742" r="0.605482" fill="white" fill-opacity="0.6"/>
<circle cx="1406.68" cy="409.455" r="0.605482" fill="white" fill-opacity="0.1"/>
<circle cx="1408.09" cy="544.295" r="0.605482" fill="white" fill-opacity="0.1"/>
<circle cx="677.943" cy="897.303" r="0.605482" fill="white" fill-opacity="0.1"/>
<circle cx="1414.6" cy="757.657" r="0.605482" fill="white" fill-opacity="0.1"/>
<circle cx="776.911" cy="333.253" r="0.605482" fill="white" fill-opacity="0.3"/>
<circle cx="570.229" cy="753.971" r="0.605482" fill="white" fill-opacity="0.15"/>
<circle cx="1504.9" cy="397.92" r="0.605482" fill="white" fill-opacity="0.1"/>
<circle cx="303.137" cy="652.382" r="0.605482" fill="white" fill-opacity="0.3"/>
<circle cx="1182.75" cy="615.655" r="0.605482" fill="white" fill-opacity="0.1"/>
<circle cx="1298.84" cy="415.504" r="0.605482" fill="white" fill-opacity="0.1"/>
<circle cx="1412.22" cy="907.074" r="0.605482" fill="white" fill-opacity="0.15"/>
<circle cx="1080.2" cy="166.874" r="0.605482" fill="white" fill-opacity="0.7"/>
<circle cx="1503.84" cy="919.19" r="0.605482" fill="white" fill-opacity="0.1"/>
<circle cx="677.203" cy="327.501" r="0.605482" fill="white" fill-opacity="0.1"/>
<circle cx="913.007" cy="179.563" r="0.605482" fill="white" fill-opacity="0.15"/>
<circle cx="539.712" cy="595.944" r="0.605482" fill="white" fill-opacity="0.1"/>
<circle cx="826.851" cy="188.232" r="0.605482" fill="white" fill-opacity="0.3"/>
<circle cx="1063.51" cy="72.3711" r="0.605482" fill="white" fill-opacity="0.3"/>
<circle cx="212.853" cy="756.062" r="0.605482" fill="white" fill-opacity="0.15"/>
<circle cx="1084.84" cy="791.55" r="0.605482" fill="white" fill-opacity="0.3"/>
<path d="M1477.02 154.631L1478.07 156.448H1475.97L1477.02 154.631Z" fill="white" fill-opacity="0.3"/>
<path d="M865.843 879.665L866.892 881.483H864.793L865.843 879.665Z" fill="white" fill-opacity="0.1"/>
<path d="M793.179 698.331L794.228 700.149H792.129L793.179 698.331Z" fill="white" fill-opacity="0.15"/>
<path d="M1291.91 938.867L1292.96 940.685H1290.86L1291.91 938.867Z" fill="white" fill-opacity="0.1"/>
<path d="M1381.89 517.992L1382.94 519.81H1380.84L1381.89 517.992Z" fill="white" fill-opacity="0.1"/>
<path d="M306.562 949.09L307.612 950.907H305.513L306.562 949.09Z" fill="white" fill-opacity="0.1"/>
<path d="M755.8 630.578L756.849 632.396H754.75L755.8 630.578Z" fill="white" fill-opacity="0.1"/>
<path d="M214.63 400.105L215.679 401.923H213.58L214.63 400.105Z" fill="white" fill-opacity="0.1"/>
<path d="M1495.13 184.685L1496.18 186.502H1494.08L1495.13 184.685Z" fill="white" fill-opacity="0.3"/>
<path d="M888.789 177.845L889.838 179.662H887.739L888.789 177.845Z" fill="white" fill-opacity="0.1"/>
<path d="M1265.97 400.653L1267.02 402.471H1264.92L1265.97 400.653Z" fill="white" fill-opacity="0.3"/>
<path d="M841.202 973.076L842.251 974.894H840.153L841.202 973.076Z" fill="white" fill-opacity="0.1"/>
<path d="M1062.8 967.902L1063.85 969.72H1061.75L1062.8 967.902Z" fill="white" fill-opacity="0.3"/>
<path d="M984.226 793.245L985.276 795.063H983.177L984.226 793.245Z" fill="white" fill-opacity="0.1"/>
<path d="M292.461 713.547L293.51 715.365H291.411L292.461 713.547Z" fill="white" fill-opacity="0.3"/>
<path d="M667.386 860.662L668.435 862.48H666.336L667.386 860.662Z" fill="white" fill-opacity="0.1"/>
<path d="M323.049 41.3076L323.306 42.2623L324.26 42.5194L323.306 42.7764L323.049 43.7311L322.792 42.7764L321.837 42.5194L322.792 42.2623L323.049 41.3076Z" fill="white" fill-opacity="0.8"/>
<path d="M167.259 552.548L167.516 553.503L168.47 553.76L167.516 554.017L167.259 554.971L167.002 554.017L166.047 553.76L167.002 553.503L167.259 552.548Z" fill="white" fill-opacity="0.1"/>
<path d="M1411.07 760.88L1411.33 761.835L1412.28 762.092L1411.33 762.349L1411.07 763.303L1410.81 762.349L1409.86 762.092L1410.81 761.835L1411.07 760.88Z" fill="white" fill-opacity="0.3"/>
<path d="M1399.11 276.607L1399.37 277.562L1400.32 277.819L1399.37 278.076L1399.11 279.031L1398.85 278.076L1397.9 277.819L1398.85 277.562L1399.11 276.607Z" fill="white" fill-opacity="0.3"/>
<path d="M822.726 178.729L822.983 179.684L823.938 179.941L822.983 180.198L822.726 181.153L822.469 180.198L821.515 179.941L822.469 179.684L822.726 178.729Z" fill="white" fill-opacity="0.3"/>
<path d="M764.465 467.812L764.722 468.767L765.676 469.024L764.722 469.281L764.465 470.236L764.208 469.281L763.253 469.024L764.208 468.767L764.465 467.812Z" fill="white" fill-opacity="0.1"/>
<path d="M1103.85 689.519L1104.1 690.473L1105.06 690.73L1104.1 690.987L1103.85 691.942L1103.59 690.987L1102.63 690.73L1103.59 690.473L1103.85 689.519Z" fill="white" fill-opacity="0.1"/>
<path d="M280.569 135.069L280.826 136.024L281.781 136.281L280.826 136.538L280.569 137.493L280.312 136.538L279.357 136.281L280.312 136.024L280.569 135.069Z" fill="white" fill-opacity="0.1"/>
<path d="M27.0838 413.743L27.3409 414.698L28.2956 414.955L27.3409 415.212L27.0838 416.167L26.8268 415.212L25.8721 414.955L26.8268 414.698L27.0838 413.743Z" fill="white" fill-opacity="0.3"/>
<path d="M1196.48 457.996L1196.73 458.951L1197.69 459.208L1196.73 459.465L1196.48 460.42L1196.22 459.465L1195.26 459.208L1196.22 458.951L1196.48 457.996Z" fill="white" fill-opacity="0.1"/>
<path d="M318.097 852.461L318.354 853.416L319.308 853.673L318.354 853.93L318.097 854.884L317.839 853.93L316.885 853.673L317.839 853.416L318.097 852.461Z" fill="white" fill-opacity="0.3"/>
<path d="M676.545 897.769L676.802 898.723L677.757 898.98L676.802 899.237L676.545 900.192L676.288 899.237L675.333 898.98L676.288 898.723L676.545 897.769Z" fill="white" fill-opacity="0.1"/>
<path d="M585.838 599.382L586.095 600.337L587.049 600.594L586.095 600.851L585.838 601.805L585.581 600.851L584.626 600.594L585.581 600.337L585.838 599.382Z" fill="white" fill-opacity="0.1"/>
<path d="M697.716 0L697.973 0.954701L698.927 1.21175L697.973 1.4688L697.716 2.4235L697.459 1.4688L696.504 1.21175L697.459 0.954701L697.716 0Z" fill="white" fill-opacity="0.3"/>
<path d="M1432.12 124.733L1432.37 125.688L1433.33 125.945L1432.37 126.202L1432.12 127.157L1431.86 126.202L1430.91 125.945L1431.86 125.688L1432.12 124.733Z" fill="white" fill-opacity="0.1"/>
<path d="M462.256 907.715L462.513 908.67L463.467 908.927L462.513 909.184L462.256 910.138L461.999 909.184L461.044 908.927L461.999 908.67L462.256 907.715Z" fill="white" fill-opacity="0.3"/>
<path d="M917.383 665.351L917.64 666.305L918.594 666.562L917.64 666.819L917.383 667.774L917.126 666.819L916.171 666.562L917.126 666.305L917.383 665.351Z" fill="white" fill-opacity="0.3"/>
<path d="M1191.87 600.361L1192.13 601.316L1193.08 601.573L1192.13 601.83L1191.87 602.785L1191.61 601.83L1190.66 601.573L1191.61 601.316L1191.87 600.361Z" fill="white" fill-opacity="0.6"/>
<path d="M395.423 416.769L395.68 417.723L396.634 417.98L395.68 418.237L395.423 419.192L395.166 418.237L394.211 417.98L395.166 417.723L395.423 416.769Z" fill="white" fill-opacity="0.15"/>
<path d="M498.893 535.885L499.15 536.839L500.105 537.097L499.15 537.354L498.893 538.308L498.636 537.354L497.682 537.097L498.636 536.839L498.893 535.885Z" fill="white" fill-opacity="0.3"/>
<path d="M650.565 198.42L650.822 199.375L651.777 199.632L650.822 199.889L650.565 200.843L650.308 199.889L649.354 199.632L650.308 199.375L650.565 198.42Z" fill="white" fill-opacity="0.1"/>
<path d="M357.793 622.975L358.05 623.929L359.005 624.186L358.05 624.443L357.793 625.398L357.536 624.443L356.581 624.186L357.536 623.929L357.793 622.975Z" fill="white" fill-opacity="0.6"/>
<path d="M436.493 503.434L436.75 504.388L437.705 504.645L436.75 504.902L436.493 505.857L436.236 504.902L435.281 504.645L436.236 504.388L436.493 503.434Z" fill="white" fill-opacity="0.1"/>
<path d="M452.349 835.157L452.606 836.112L453.561 836.369L452.606 836.626L452.349 837.581L452.092 836.626L451.138 836.369L452.092 836.112L452.349 835.157Z" fill="white" fill-opacity="0.1"/>
<path d="M1248.74 575.064L1249 576.019L1249.96 576.276L1249 576.533L1248.74 577.488L1248.49 576.533L1247.53 576.276L1248.49 576.019L1248.74 575.064Z" fill="white" fill-opacity="0.1"/>
<path d="M379.018 575.104L379.275 576.058L380.23 576.315L379.275 576.572L379.018 577.527L378.761 576.572L377.807 576.315L378.761 576.058L379.018 575.104Z" fill="white" fill-opacity="0.8"/>
<path d="M400.172 900.806L400.429 901.76L401.383 902.017L400.429 902.274L400.172 903.229L399.915 902.274L398.96 902.017L399.915 901.76L400.172 900.806Z" fill="white" fill-opacity="0.1"/>
<path d="M944.955 214.232L945.212 215.187L946.167 215.444L945.212 215.701L944.955 216.656L944.698 215.701L943.743 215.444L944.698 215.187L944.955 214.232Z" fill="white" fill-opacity="0.15"/>
</g>
<defs>
<clipPath id="clip0_99_3964">
<rect width="1512" height="982" fill="white"/>
</clipPath>
</defs>
</svg>
