<svg width="21" height="15" viewBox="0 0 21 15" fill="none" xmlns="http://www.w3.org/2000/svg">
<path d="M18 0C19.3237 0 20.4 1.07625 20.4 2.4V12L20.3888 12.2438C20.2725 13.3725 19.3762 14.2725 18.2475 14.385L18.0037 14.3963H2.40375L2.16 14.385C1.03125 14.2688 0.13125 13.3725 0.01875 12.2438L0 12V2.4C0 1.07625 1.07625 0 2.4 0H18ZM2.4 1.8C2.07 1.8 1.8 2.07 1.8 2.4V12C1.8 12.33 2.07 12.6 2.4 12.6H18C18.33 12.6 18.6 12.33 18.6 12V2.4C18.6 2.07 18.33 1.8 18 1.8H2.4ZM6 3.6C7.32375 3.6 8.4 4.67625 8.4 6V9.9C8.4 10.3988 7.99875 10.8 7.5 10.8C7.00125 10.8 6.6 10.3988 6.6 9.9V9H5.4V9.9C5.4 10.3988 4.99875 10.8 4.5 10.8C4.00125 10.8 3.6 10.3988 3.6 9.9V6C3.6 4.67625 4.67625 3.6 6 3.6ZM12 3.6C13.3237 3.6 14.4 4.67625 14.4 6C14.4 7.32375 13.3237 8.4 12 8.4H11.4V9.9C11.4 10.3988 10.9987 10.8 10.5 10.8C10.0012 10.8 9.6 10.3988 9.6 9.9V4.5C9.6 4.00125 10.0012 3.6 10.5 3.6H12ZM16.2 3.6C16.6987 3.6 17.1 4.00125 17.1 4.5V9.9C17.1 10.3988 16.6987 10.8 16.2 10.8C15.7012 10.8 15.3 10.3988 15.3 9.9V4.5C15.3 4.00125 15.7012 3.6 16.2 3.6ZM6 5.4C5.67 5.4 5.4 5.67 5.4 6V7.2H6.6V6C6.6 5.67 6.33 5.4 6 5.4ZM11.4 6.6H12C12.33 6.6 12.6 6.33 12.6 6C12.6 5.67 12.33 5.4 12 5.4H11.4V6.6Z" fill="black"/>
</svg>
