<svg width="79" height="80" viewBox="0 0 79 80" fill="none" xmlns="http://www.w3.org/2000/svg">
<g clip-path="url(#clip0_419_161)">
<path d="M39 1.25C17.3281 1.25 0.75 17.7031 0.75 39.375C0.75 56.7031 11.6562 71.5312 27.2344 76.75C29.2344 77.1094 29.9375 75.875 29.9375 74.8594C29.9375 73.8906 29.8906 68.5469 29.8906 65.2656C29.8906 65.2656 18.9531 67.6094 16.6562 60.6094C16.6562 60.6094 14.875 56.0625 12.3125 54.8906C12.3125 54.8906 8.73438 52.4375 12.5625 52.4844C12.5625 52.4844 16.4531 52.7969 18.5938 56.5156C22.0156 62.5469 27.75 60.8125 29.9844 59.7812C30.3438 57.2812 31.3594 55.5469 32.4844 54.5156C23.75 53.5469 14.9375 52.2812 14.9375 37.25C14.9375 32.9531 16.125 30.7969 18.625 28.0469C18.2188 27.0312 16.8906 22.8438 19.0312 17.4375C22.2969 16.4219 29.8125 21.6562 29.8125 21.6562C32.9375 20.7812 36.2969 20.3281 39.625 20.3281C42.9531 20.3281 46.3125 20.7812 49.4375 21.6562C49.4375 21.6562 56.9531 16.4062 60.2188 17.4375C62.3594 22.8594 61.0312 27.0312 60.625 28.0469C63.125 30.8125 64.6562 32.9688 64.6562 37.25C64.6562 52.3281 55.4531 53.5312 46.7188 54.5156C48.1562 55.75 49.375 58.0938 49.375 61.7656C49.375 67.0312 49.3281 73.5469 49.3281 74.8281C49.3281 75.8438 50.0469 77.0781 52.0312 76.7188C67.6562 71.5312 78.25 56.7031 78.25 39.375C78.25 17.7031 60.6719 1.25 39 1.25Z" fill="#25292E"/>
</g>
<defs>
<clipPath id="clip0_419_161">
<rect width="77.5" height="80" fill="white" transform="translate(0.75)"/>
</clipPath>
</defs>
</svg>
